<?xml version="1.0" standalone="no"?>
<!DOCTYPE svg PUBLIC "-//W3C//DTD SVG 1.1//EN" "http://www.w3.org/Graphics/SVG/1.1/DTD/svg11.dtd" >
<svg>
<metadata>
Created by FontForge 20120731 at Thu Sep  4 18:24:46 2014
 By World Wide Web Server
Copyright (c) 2011 by vernon adams. All rights reserved.
</metadata>
<defs>
<font id="Oswald-Bold" horiz-adv-x="1135" >
  <font-face 
    font-family="Oswald"
    font-weight="700"
    font-stretch="ultra-condensed"
    units-per-em="2048"
    panose-1="2 0 5 6 0 0 0 2 0 4"
    ascent="1638"
    descent="-410"
    x-height="1305"
    cap-height="1800"
    bbox="-141 -646 1980 2398"
    underline-thickness="102"
    underline-position="-205"
    unicode-range="U+000D-FB04"
  />
<missing-glyph horiz-adv-x="762" 
d="M98 0h571v1389h-571v-1389zM260 136v1119h245v-1119h-245z" />
    <glyph glyph-name=".notdef" horiz-adv-x="762" 
d="M98 0h571v1389h-571v-1389zM260 136v1119h245v-1119h-245z" />
    <glyph glyph-name="CR" unicode="&#xd;" horiz-adv-x="0" 
 />
    <glyph glyph-name="space" unicode=" " horiz-adv-x="278" 
 />
    <glyph glyph-name="space" unicode="&#xa0;" horiz-adv-x="278" 
 />
    <glyph glyph-name="exclam" unicode="!" horiz-adv-x="524" 
d="M199 462h116l123 1337h-343zM95 0h323v317h-323v-317z" />
    <glyph glyph-name="quotedbl" unicode="&#x22;" horiz-adv-x="758" 
d="M130 1202h203l1 599h-294zM434 1202h182l102 599h-285z" />
    <glyph glyph-name="numbersign" unicode="#" horiz-adv-x="1150" 
d="M153 0h206l89 616h143l-88 -616h206l89 616h226v255h-189l16 114h173v255h-136l81 561h-209l-80 -561h-142l81 561h-209l-80 -561h-231v-255h194l-16 -114h-178v-255h142zM485 871l16 114h142l-16 -114h-142z" />
    <glyph glyph-name="dollar" unicode="$" horiz-adv-x="1145" 
d="M529 -100h96v170c236 12 432 172 432 409c0 259 -126 373 -330 527l-123 93c-85 64 -152 127 -152 232c0 61 33 130 121 130c96 0 112 -89 112 -162c0 -29 -2 -56 -3 -74l372 50l1 46c0 231 -189 404 -430 416v194h-96v-197c-259 -24 -435 -183 -435 -447
c0 -227 143 -346 283 -457l112 -89c105 -83 209 -148 209 -269c0 -62 -17 -123 -103 -123c-129 0 -138 150 -138 239v49l-364 -69c0 -259 125 -470 436 -497v-171z" />
    <glyph glyph-name="percent" unicode="%" horiz-adv-x="2041" 
d="M94 1295c0 -297 98 -511 385 -511c286 0 387 214 387 511v8c-2 302 -100 497 -387 497c-289 0 -384 -196 -385 -499v-6zM360 1306c0 170 9 285 119 285c111 0 118 -116 118 -287v-9c0 -172 -10 -303 -118 -303s-119 131 -119 303v11zM1170 511c0 -297 98 -511 385 -511
c286 0 387 214 387 511v9c-2 302 -100 496 -387 496c-288 0 -383 -195 -385 -496v-9zM1436 517c0 173 8 290 119 290c112 0 118 -118 118 -291v-5c0 -172 -10 -303 -118 -303s-119 131 -119 303v6zM634 0h179l578 1835h-180z" />
    <glyph glyph-name="ampersand" unicode="&#x26;" horiz-adv-x="1194" 
d="M1129 262c-59 5 -121 35 -160 80c105 154 150 280 150 532h-276c0 -100 -5 -216 -41 -310l-187 312c158 162 280 341 280 575c0 236 -163 383 -395 383c-235 0 -366 -179 -366 -400c0 -150 100 -395 160 -528c-134 -149 -228 -314 -228 -517c0 -234 140 -419 390 -419
c130 0 252 53 339 151c71 -68 170 -150 274 -150c20 0 40 2 60 6v285zM507 1105c-39 95 -71 224 -71 328c0 57 10 150 86 150c77 0 97 -85 97 -147c0 -112 -49 -240 -112 -331zM606 313c-35 -45 -81 -92 -142 -92c-63 0 -86 95 -86 193c0 93 20 189 46 214
c54 -108 118 -212 182 -315z" />
    <glyph glyph-name="quotesingle" unicode="'" horiz-adv-x="356" 
d="M101 1201h163l71 598h-304z" />
    <glyph glyph-name="parenleft" unicode="(" horiz-adv-x="696" 
d="M637 158c-240 -4 -194 626 -194 763c0 138 -46 768 194 764v222c-496 2 -481 -632 -481 -986c0 -353 -15 -988 481 -985v222z" />
    <glyph glyph-name="parenright" unicode=")" horiz-adv-x="696" 
d="M110 -64c495 -3 482 633 482 985c0 353 13 988 -482 986v-222c239 4 194 -627 194 -764c0 -136 45 -767 -194 -763v-222z" />
    <glyph glyph-name="asterisk" unicode="*" horiz-adv-x="913" 
d="M158 974l196 -116l117 235l118 -235l198 116l-165 230l246 94l-74 199l-223 -120l25 265h-250l27 -264l-223 118l-74 -197l244 -94z" />
    <glyph glyph-name="plus" unicode="+" horiz-adv-x="762" 
d="M70 583h195v-194h222v194h195v223h-195v194h-222v-194h-195v-223z" />
    <glyph glyph-name="comma" unicode="," horiz-adv-x="469" 
d="M153 -244c283 -42 254 219 254 561h-323v-318h110c-1 -84 -9 -77 -81 -77z" />
    <glyph glyph-name="hyphen" unicode="-" horiz-adv-x="429" 
d="M4 453h417v223h-417v-223z" />
    <glyph glyph-name="period" unicode="." horiz-adv-x="522" 
d="M99 0h325v317h-325v-317z" />
    <glyph glyph-name="slash" unicode="/" horiz-adv-x="895" 
d="M91 0h179l578 1835h-180z" />
    <glyph glyph-name="zero" unicode="0" horiz-adv-x="1147" 
d="M89 528c0 -304 152 -563 485 -563c328 0 484 262 484 563v741c0 311 -144 565 -484 565c-342 0 -485 -253 -485 -565v-741zM709 528c0 -88 -15 -258 -135 -258c-119 0 -134 171 -134 258v741c0 91 6 259 134 259c126 0 135 -168 135 -259v-741z" />
    <glyph glyph-name="one" unicode="1" horiz-adv-x="676" 
d="M225 0h344v1801h-266c-63 -128 -153 -135 -260 -199v-265h182v-1337z" />
    <glyph glyph-name="two" unicode="2" horiz-adv-x="1074" 
d="M60 0h958v346h-560c105 140 237 282 347 436c120 168 213 350 213 557c0 301 -170 496 -478 496c-350 0 -479 -239 -479 -559v-113h345c0 99 -14 368 134 368c95 0 132 -114 132 -192c0 -147 -92 -286 -174 -403l-438 -627v-309z" />
    <glyph glyph-name="three" unicode="3" horiz-adv-x="1099" 
d="M71 582l1 -61c5 -317 107 -556 483 -556c355 0 484 242 484 565c0 160 -47 332 -182 431c124 79 182 235 182 376c0 304 -173 499 -484 499c-312 0 -484 -192 -484 -499v-114h349c0 100 -10 308 135 308c117 0 134 -101 134 -194c0 -170 -96 -202 -247 -198v-350
c169 4 247 -97 247 -259c0 -96 2 -259 -134 -259c-146 0 -135 211 -135 311h-349z" />
    <glyph glyph-name="four" unicode="4" horiz-adv-x="1117" 
d="M72 437h504v-437h345v437h168v280h-168v1084h-409l-440 -1082v-282zM380 717l195 540l1 -540h-196z" />
    <glyph glyph-name="five" unicode="5" horiz-adv-x="1143" 
d="M116 571c0 -329 94 -606 474 -606c402 0 480 344 480 675c0 282 -85 553 -417 553c-66 0 -131 -24 -188 -59l13 325h533v342h-857v-1034h295c23 59 73 140 146 140c129 0 135 -169 135 -262c0 -119 15 -385 -156 -385c-108 0 -114 141 -112 311h-346z" />
    <glyph glyph-name="six" unicode="6" horiz-adv-x="1118" 
d="M87 550c0 -281 138 -579 485 -579c356 0 485 310 485 619c0 291 -83 547 -414 547c-71 0 -144 -20 -206 -62l-1 103c-1 124 9 352 136 352c112 0 116 -152 116 -248h339v32c0 294 -153 521 -455 521c-386 0 -485 -348 -485 -647v-638zM438 762c29 46 77 84 134 84
c134 0 136 -166 136 -266c0 -90 4 -309 -136 -309c-119 0 -134 171 -134 258v233z" />
    <glyph glyph-name="seven" unicode="7" horiz-adv-x="843" 
d="M171 0h339l316 1622l-6 177h-775v-303h438z" />
    <glyph glyph-name="eight" unicode="8" horiz-adv-x="1119" 
d="M570 1074c-113 0 -115 200 -115 293c0 69 14 194 115 194c102 0 113 -127 113 -194c0 -92 0 -293 -113 -293zM240 952c-134 -108 -154 -262 -154 -424c0 -329 124 -559 484 -559c362 0 484 229 484 559c0 163 -23 316 -156 424c100 101 131 247 131 385
c0 296 -147 499 -459 499c-311 0 -462 -201 -462 -499c0 -138 33 -283 132 -385zM570 251c-143 0 -145 160 -145 257c0 110 15 296 145 296c131 0 144 -186 144 -296c0 -96 0 -257 -144 -257z" />
    <glyph glyph-name="nine" unicode="9" horiz-adv-x="1145" 
d="M111 489c9 -295 153 -518 465 -518c389 0 485 361 485 681v560c0 300 -140 623 -485 623c-354 0 -485 -316 -485 -623c0 -290 86 -547 423 -547c69 0 138 16 199 50l1 -45c0 -101 11 -399 -138 -399c-121 0 -124 154 -124 248h-341v-30zM712 1034
c-29 -45 -81 -81 -136 -81c-136 0 -134 179 -134 275c0 93 -1 302 134 302c120 0 136 -172 136 -259v-237z" />
    <glyph glyph-name="colon" unicode=":" horiz-adv-x="518" 
d="M99 897h321v316h-321v-316zM99 151h321v315h-321v-315z" />
    <glyph glyph-name="semicolon" unicode=";" horiz-adv-x="510" 
d="M87 897h321v316h-321v-316zM154 -95c283 -42 254 219 254 561h-323v-318h110c-1 -84 -9 -77 -81 -77z" />
    <glyph glyph-name="less" unicode="&#x3c;" horiz-adv-x="865" 
d="M74 525l676 -472v292c-148 106 -296 211 -444 319l444 315v293l-676 -473v-274z" />
    <glyph glyph-name="equal" unicode="=" horiz-adv-x="762" 
d="M70 583h612v223h-612v-223zM70 258h612v222h-612v-222z" />
    <glyph glyph-name="greater" unicode="&#x3e;" horiz-adv-x="865" 
d="M115 53l676 472v274l-676 473v-293l444 -315l-444 -319v-292z" />
    <glyph glyph-name="question" unicode="?" horiz-adv-x="974" 
d="M259 480h334v280c223 129 353 365 353 622c0 291 -169 453 -463 453c-306 0 -437 -185 -437 -427c0 -66 10 -137 29 -210l314 60c-12 39 -19 84 -19 124c0 84 34 159 113 159c81 0 126 -47 126 -139c0 -221 -183 -420 -350 -534v-388zM259 0h334v324h-334v-324z" />
    <glyph glyph-name="at" unicode="@" horiz-adv-x="1727" 
d="M923 565c-22 -23 -42 -28 -61 -28c-90 0 -103 112 -103 179c0 91 -12 292 124 292c22 0 38 -18 40 -39v-404zM1245 152c-97 -31 -206 -58 -308 -58c-448 0 -567 281 -567 697c0 327 148 606 504 606c389 0 494 -254 494 -606c0 -60 -7 -254 -103 -254
c-58 0 -55 64 -55 105v589h-287v-54c-29 44 -79 63 -130 63c-258 0 -321 -326 -321 -524c0 -207 114 -421 345 -421c56 0 108 27 176 117c69 -80 173 -117 277 -117c276 0 385 253 385 496c0 502 -264 828 -781 828c-500 0 -791 -339 -791 -828c0 -599 233 -921 854 -921
c137 0 283 26 416 56z" />
    <glyph glyph-name="A" unicode="A" 
d="M18 0h361l70 385h235l74 -385h359l-388 1800h-322zM474 609l95 668l91 -668h-186z" />
    <glyph glyph-name="B" unicode="B" horiz-adv-x="1140" 
d="M107 0h444c354 0 527 168 527 531c0 225 -86 397 -321 454c181 61 273 157 273 350c0 389 -244 465 -552 465h-371v-1800zM471 1092v464h20c122 1 207 2 207 -212c0 -139 -29 -252 -167 -252h-60zM471 257v596h36c169 0 218 -124 218 -297c0 -208 -28 -299 -220 -299h-34
z" />
    <glyph glyph-name="C" unicode="C" horiz-adv-x="1174" 
d="M84 601c0 -347 122 -636 522 -636c391 0 499 299 504 623l1 152h-356v-185c1 -140 -16 -309 -149 -309c-138 0 -158 153 -158 265v777c0 111 21 266 158 266c138 0 147 -174 147 -308v-166h358v155c0 347 -132 600 -505 600c-401 0 -522 -282 -522 -638v-596z" />
    <glyph glyph-name="D" unicode="D" horiz-adv-x="1164" 
d="M471 255v1289h14c154 -1 231 -22 231 -148v-969c0 -161 -51 -172 -237 -172h-8zM107 0h372c518 0 601 207 601 627v590c0 409 -115 583 -597 583h-376v-1800z" />
    <glyph glyph-name="E" unicode="E" horiz-adv-x="889" 
d="M107 0h751v250h-387v554h274v256h-274v490h387v250h-751v-1800z" />
    <glyph glyph-name="F" unicode="F" horiz-adv-x="879" 
d="M107 0h364v804h274v256h-274v490h387v250h-751v-1800z" />
    <glyph glyph-name="G" unicode="G" horiz-adv-x="1238" 
d="M84 563c0 -279 122 -598 459 -598c119 0 245 65 306 161l46 -126h250v926h-570v-261h206v-144c0 -117 -23 -275 -166 -275s-167 146 -167 265v777c0 118 25 266 167 266c153 0 167 -167 167 -299v-126h348v106c0 347 -135 600 -515 600c-404 0 -531 -277 -531 -638v-634z
" />
    <glyph glyph-name="H" unicode="H" horiz-adv-x="1205" 
d="M107 0h364v803h261v-803h366v1800h-366v-738h-261v738h-364v-1800z" />
    <glyph glyph-name="I" unicode="I" horiz-adv-x="578" 
d="M107 0h364v1800h-364v-1800z" />
    <glyph glyph-name="J" unicode="J" horiz-adv-x="691" 
d="M0 -34h179c339 0 405 155 405 466v1368h-364v-1365c0 -179 -46 -215 -220 -213v-256z" />
    <glyph glyph-name="K" unicode="K" horiz-adv-x="1187" 
d="M107 0h364v653l66 170l272 -823h378l-394 1063l367 737h-407l-282 -683v683h-364v-1800z" />
    <glyph glyph-name="L" unicode="L" horiz-adv-x="852" 
d="M107 0h722v250h-358v1550h-364v-1800z" />
    <glyph glyph-name="M" unicode="M" horiz-adv-x="1470" 
d="M107 0h269l8 1274l221 -1274h272c59 389 151 877 210 1266l8 -1266h268v1800h-421l-207 -1200l-192 1200h-436v-1800z" />
    <glyph glyph-name="N" unicode="N" horiz-adv-x="1173" 
d="M107 0h313v999l394 -999h252v1801h-302v-942l-395 942h-262v-1801z" />
    <glyph glyph-name="O" unicode="O" horiz-adv-x="1221" 
d="M773 510c0 -116 -22 -265 -163 -265c-139 0 -162 151 -162 265v778c0 113 24 266 162 266c139 0 163 -151 163 -266v-778zM84 592c0 -347 129 -627 526 -627c399 0 527 289 527 636v596c0 357 -126 638 -527 638s-526 -281 -526 -638v-605z" />
    <glyph glyph-name="P" unicode="P" horiz-adv-x="1030" 
d="M107 0h364v770h2c322 2 518 108 518 520c0 318 -125 510 -449 510h-435v-1800zM471 1027v514h20c154 0 155 -102 155 -244c0 -183 -1 -270 -160 -270h-15z" />
    <glyph glyph-name="Q" unicode="Q" horiz-adv-x="1228" 
d="M84 592c0 -365 157 -629 524 -629c32 0 65 1 99 5c54 -85 156 -202 400 -202v221c-16 0 -145 -2 -176 65c163 137 213 348 213 549v596c0 358 -129 638 -530 638s-530 -280 -530 -638v-605zM780 511c0 -118 -24 -265 -166 -265c-140 0 -166 149 -166 265v777
c0 115 27 266 166 266c140 0 166 -150 166 -266v-777z" />
    <glyph glyph-name="R" unicode="R" horiz-adv-x="1134" 
d="M107 0h364v829h60l206 -829h377c-101 299 -192 584 -282 870c223 96 245 298 245 456c0 350 -226 474 -574 474h-396v-1800zM471 1051v482h121c109 0 123 -170 123 -236c0 -67 -19 -246 -140 -246h-104z" />
    <glyph glyph-name="S" unicode="S" horiz-adv-x="1073" 
d="M57 515c14 -282 162 -552 507 -552c251 0 463 172 463 430c0 278 -139 447 -324 612c-42 38 -87 75 -133 114c-86 72 -154 152 -154 281c0 76 34 158 120 158c96 0 115 -122 115 -207c0 -28 -3 -50 -3 -73l376 52c0 29 1 37 1 43c0 255 -203 464 -459 464
c-303 0 -508 -179 -508 -474c0 -259 147 -391 289 -511l113 -96c105 -92 213 -226 213 -376c0 -76 -22 -138 -108 -138c-126 0 -139 186 -139 344z" />
    <glyph glyph-name="T" unicode="T" horiz-adv-x="921" 
d="M281 0h364v1528h259v272h-887v-272h264v-1528z" />
    <glyph glyph-name="U" unicode="U" horiz-adv-x="1248" 
d="M99 669c0 -371 68 -704 525 -704c458 0 525 333 525 704v1131h-364v-1120c0 -303 1 -434 -161 -434c-161 0 -161 131 -161 434v1120h-364v-1131z" />
    <glyph glyph-name="V" unicode="V" horiz-adv-x="1076" 
d="M359 0h333l356 1800h-340l-176 -1091l-159 1091h-345z" />
    <glyph glyph-name="W" unicode="W" horiz-adv-x="1486" 
d="M281 0h311l148 1178l151 -1178h311l252 1800h-311l-117 -1185l-151 1185h-267l-154 -1192l-112 1192h-310z" />
    <glyph glyph-name="X" unicode="X" horiz-adv-x="1103" 
d="M36 0h344l170 595l172 -595h343l-287 937l291 863h-338l-182 -538l-169 538h-346l293 -869z" />
    <glyph glyph-name="Y" unicode="Y" horiz-adv-x="1035" 
d="M341 0h352v595l339 1205h-333c-61 -260 -124 -531 -185 -791l-168 791h-343l338 -1205v-595z" />
    <glyph glyph-name="Z" unicode="Z" horiz-adv-x="998" 
d="M80 0h831v250h-477l477 1320v229h-776v-250h420l-475 -1321v-228z" />
    <glyph glyph-name="bracketleft" unicode="[" horiz-adv-x="779" 
d="M156 -64h547v158h-259v1655h259v158h-547v-1971z" />
    <glyph glyph-name="backslash" unicode="\" horiz-adv-x="629" 
d="M265 0h289l-198 1843h-288z" />
    <glyph glyph-name="bracketright" unicode="]" horiz-adv-x="728" 
d="M76 -64h512v1920h-512v-128h256v-1664h-256v-128z" />
    <glyph glyph-name="asciicircum" unicode="^" horiz-adv-x="962" 
d="M65 907h290l119 418l120 -418h290l-271 676h-277z" />
    <glyph glyph-name="underscore" unicode="_" horiz-adv-x="829" 
d="M6 0h806v223h-806v-223z" />
    <glyph glyph-name="grave" unicode="`" horiz-adv-x="640" 
d="M353 1393h205l-136 442h-346z" />
    <glyph glyph-name="a" unicode="a" horiz-adv-x="976" 
d="M620 0h308c-27 117 -43 227 -43 347v620c0 202 -178 368 -376 368c-289 0 -441 -168 -441 -466h327v74c0 64 3 137 81 137c57 0 75 -50 75 -137v-110c-270 -111 -493 -220 -493 -542c0 -152 70 -320 270 -320c119 0 217 34 259 164zM552 295c-23 -29 -53 -70 -98 -70
c-54 0 -68 53 -68 97c0 130 78 224 165 294z" />
    <glyph glyph-name="b" unicode="b" horiz-adv-x="999" 
d="M583 319c0 -42 -4 -94 -56 -94c-40 0 -77 56 -95 81v696c19 25 56 78 95 78c51 0 56 -47 56 -86v-675zM95 0h337v98c53 -78 136 -127 227 -127c151 0 261 134 261 279v771c0 160 -114 314 -271 314c-88 0 -166 -52 -217 -118v583h-337v-1800z" />
    <glyph glyph-name="c" unicode="c" horiz-adv-x="928" 
d="M78 334c0 -223 189 -363 401 -363c213 0 401 139 401 363v195h-331v-139c0 -106 -4 -165 -70 -165c-58 0 -64 66 -64 110v646c0 42 11 99 64 99c63 0 70 -61 70 -151v-149h331v114c0 268 -120 441 -401 441c-280 0 -401 -174 -401 -441v-560z" />
    <glyph glyph-name="d" unicode="d" horiz-adv-x="999" 
d="M567 297c-18 -25 -55 -72 -95 -72c-52 0 -56 52 -56 94v675c0 39 5 86 56 86c39 0 76 -50 95 -75v-708zM79 250c0 -145 110 -279 261 -279c91 0 174 49 227 127v-98h337v1800h-337v-583c-51 66 -129 118 -217 118c-157 0 -271 -154 -271 -314v-771z" />
    <glyph glyph-name="e" unicode="e" horiz-adv-x="940" 
d="M78 339c0 -223 189 -368 401 -368c213 0 401 144 401 368v147h-331v-143c0 -56 -10 -118 -70 -118c-59 0 -64 67 -64 110v289h465v270c0 268 -120 441 -401 441c-280 0 -401 -174 -401 -441v-555zM415 801v180c0 42 11 99 64 99c55 0 67 -54 67 -99v-180h-131z" />
    <glyph glyph-name="f" unicode="f" horiz-adv-x="647" 
d="M141 0h337v1080h163v225h-163v61c0 86 25 109 78 109c19 0 88 -6 88 -6v252s-117 14 -212 14c-256 0 -288 -217 -291 -428v-2h-76v-225h76v-1080z" />
    <glyph glyph-name="g" unicode="g" horiz-adv-x="965" 
d="M957 1335c-84 0 -188 -18 -245 -83c-57 61 -146 83 -232 83c-285 0 -397 -241 -397 -487c0 -127 40 -261 102 -374c-41 -52 -133 -172 -133 -226c0 -39 81 -86 117 -104c-80 -58 -137 -156 -137 -250c0 -222 319 -235 481 -235c236 0 450 60 450 346
c0 217 -282 247 -467 274c-90 13 -158 26 -158 60c0 9 23 54 23 54s67 -15 108 -15c259 0 401 209 401 445c0 74 -3 157 -42 227c36 36 94 44 143 44l28 241h-42zM472 632c-76 0 -77 161 -77 219c0 113 3 251 82 251c76 0 77 -180 77 -238c0 -61 -1 -232 -82 -232zM368 79
c90 -4 273 -14 273 -116c0 -73 -89 -68 -120 -68c-59 0 -222 4 -222 59c0 46 24 92 45 125h24z" />
    <glyph glyph-name="h" unicode="h" horiz-adv-x="1005" 
d="M94 0h337v1005c21 25 61 75 104 75c56 0 46 -80 46 -117v-963h337v1051c0 131 -86 284 -231 284c-100 0 -194 -53 -256 -123v588h-337v-1800z" />
    <glyph glyph-name="i" unicode="i" horiz-adv-x="529" 
d="M96 0h337v1305h-337v-1305zM96 1419h337v315h-337v-315z" />
    <glyph glyph-name="j" unicode="j" horiz-adv-x="572" 
d="M-21 -284c58 -15 119 -27 179 -27c211 0 320 132 320 337v1279h-335v-1250c0 -52 -14 -111 -76 -111c-29 0 -60 8 -88 16v-244zM143 1419h335v315h-335v-315z" />
    <glyph glyph-name="k" unicode="k" horiz-adv-x="1001" 
d="M99 0h337v506l45 76l172 -582h349l-320 754l321 551h-361l-206 -453v948h-337v-1800z" />
    <glyph glyph-name="l" unicode="l" horiz-adv-x="529" 
d="M96 0h337v1800h-337v-1800z" />
    <glyph glyph-name="m" unicode="m" horiz-adv-x="1473" 
d="M94 0h337l-1 1005c19 25 56 75 95 75c45 0 46 -62 46 -94v-986h337v1006c16 21 58 74 92 74c49 0 49 -63 49 -96v-984h337v1051c0 131 -89 284 -234 284c-110 0 -209 -62 -272 -147c-36 80 -113 147 -203 147c-96 0 -186 -53 -246 -123v93h-337v-1305z" />
    <glyph glyph-name="n" unicode="n" horiz-adv-x="1005" 
d="M94 0h337v1012c19 22 55 68 94 68c56 0 56 -59 56 -87v-993h337v1052c0 131 -86 282 -231 282c-100 0 -194 -51 -256 -121v92h-337v-1305z" />
    <glyph glyph-name="o" unicode="o" horiz-adv-x="973" 
d="M78 339c0 -223 189 -368 406 -368c218 0 411 144 411 368v555c0 268 -123 440 -411 440s-406 -173 -406 -440v-555zM561 335c0 -46 -8 -110 -77 -110c-67 0 -69 66 -69 110v646c0 42 8 99 69 99c63 0 77 -54 77 -99v-646z" />
    <glyph glyph-name="p" unicode="p" horiz-adv-x="999" 
d="M583 319c0 -42 -4 -94 -56 -94c-40 0 -77 47 -95 72v708c19 25 56 75 95 75c51 0 56 -47 56 -86v-675zM95 -371h337v469c53 -78 136 -127 227 -127c151 0 261 134 261 279v771c0 160 -114 314 -271 314c-88 0 -166 -52 -217 -118v88h-337v-1676z" />
    <glyph glyph-name="q" unicode="q" horiz-adv-x="979" 
d="M548 301c-17 -25 -50 -76 -85 -76c-42 0 -46 45 -46 84v687c0 38 3 84 46 84c36 0 69 -49 85 -71v-708zM548 -371h337v1676h-337v-97c-49 78 -124 127 -207 127c-151 0 -259 -134 -259 -279v-801c0 -145 108 -284 259 -284c84 0 158 52 207 118v-460z" />
    <glyph glyph-name="r" unicode="r" horiz-adv-x="714" 
d="M94 0h335v876c0 105 48 164 140 164c39 0 74 -6 111 -10l20 284c-31 5 -60 10 -91 10c-77 0 -137 -55 -180 -125v106h-335v-1305z" />
    <glyph glyph-name="s" unicode="s" horiz-adv-x="874" 
d="M51 315c56 -199 208 -344 418 -344c207 0 381 149 381 364c0 155 -120 285 -235 389l-62 55c-88 74 -182 158 -182 224c0 39 24 82 74 82c91 0 142 -127 170 -199l242 83c-51 185 -201 365 -402 365c-214 0 -422 -116 -422 -351c0 -162 112 -281 229 -383l55 -47
c105 -90 200 -169 200 -261c0 -42 -13 -74 -63 -74c-84 0 -123 122 -145 189z" />
    <glyph glyph-name="t" unicode="t" horiz-adv-x="668" 
d="M117 448c0 -228 29 -463 313 -463c66 0 127 0 193 20l20 261c-33 -5 -65 -6 -98 -6c-71 0 -91 39 -91 107v713h162v225h-162v429h-337v-429h-96v-225h96v-632zM429 0z" />
    <glyph glyph-name="u" unicode="u" horiz-adv-x="1006" 
d="M87 253c0 -131 85 -282 231 -282c99 0 194 65 257 142v-113h337v1305h-337v-1006c-21 -26 -61 -74 -105 -74c-46 0 -46 73 -46 110v970h-337v-1052z" />
    <glyph glyph-name="v" unicode="v" horiz-adv-x="892" 
d="M282 0h341l258 1305h-316l-109 -881l-129 881h-316z" />
    <glyph glyph-name="w" unicode="w" horiz-adv-x="1273" 
d="M218 0h290l132 771l123 -771h290l193 1305h-260l-114 -821l-98 821h-254l-108 -805l-104 805h-281z" />
    <glyph glyph-name="x" unicode="x" horiz-adv-x="922" 
d="M34 0h332l94 410l96 -410h332l-238 688l239 617h-333c-30 -137 -64 -272 -95 -409l-95 409h-333l241 -617z" />
    <glyph glyph-name="y" unicode="y" horiz-adv-x="872" 
d="M87 -311h43c214 0 396 42 446 276l285 1340h-309l-106 -728l-121 728h-307c29 -137 187 -806 237 -1080c10 -53 15 -91 15 -108c0 -134 -48 -192 -183 -195v-233z" />
    <glyph glyph-name="z" unicode="z" horiz-adv-x="813" 
d="M57 0h707v244h-362l362 838v223h-651v-243h303l-359 -834v-228z" />
    <glyph glyph-name="braceleft" unicode="{" horiz-adv-x="762" 
d="M682 158c-206 -1 -186 190 -197 388c-8 146 -32 297 -175 376c150 97 177 358 177 517c0 184 1 247 195 246v222c-364 0 -482 -83 -482 -468c0 -98 26 -375 -130 -374v-287c155 2 130 -122 130 -246c0 -368 78 -596 482 -596v222z" />
    <glyph glyph-name="bar" unicode="|" horiz-adv-x="429" 
d="M134 -130h222v2102h-222v-2102z" />
    <glyph glyph-name="braceright" unicode="}" horiz-adv-x="762" 
d="M70 -64c405 0 483 227 483 596c0 123 -25 248 129 246v287c-155 -1 -129 277 -129 374c0 386 -119 468 -483 468v-222c194 1 195 -62 195 -246c0 -156 29 -424 177 -517c-151 -84 -169 -247 -176 -402c-8 -188 0 -363 -196 -362v-222z" />
    <glyph glyph-name="asciitilde" unicode="~" horiz-adv-x="1028" 
d="M139 842h182c0 24 1 68 34 68c59 0 178 -88 287 -88c165 0 235 148 234 307h-181c0 -25 -3 -69 -37 -69c-70 0 -176 87 -285 87c-165 0 -235 -145 -234 -305z" />
    <glyph glyph-name="exclamdown" unicode="&#xa1;" horiz-adv-x="498" 
d="M131 0h269v1180h-269v-1180zM76 1233h324v317h-324v-317z" />
    <glyph glyph-name="cent" unicode="&#xa2;" horiz-adv-x="965" 
d="M447 -263h90v295c192 21 352 160 352 367v127h-332c1 -79 2 -92 2 -105c0 -81 -14 -125 -71 -125c-58 0 -64 66 -64 110v508c0 42 11 99 64 99c63 0 71 -62 70 -151l-1 -74h332v56c0 252 -106 418 -352 437v287h-90v-287c-251 -16 -360 -184 -360 -437v-445
c0 -209 165 -350 360 -367v-295z" />
    <glyph glyph-name="sterling" unicode="&#xa3;" horiz-adv-x="1137" 
d="M84 0h945v284h-459v441h245v259h-245v220c0 155 8 348 71 348c71 0 71 -171 71 -247h327c0 258 -33 529 -398 529c-387 0 -436 -334 -436 -628v-222h-121v-259h121v-480l-121 -59v-186z" />
    <glyph glyph-name="currency" unicode="&#xa4;" horiz-adv-x="1054" 
d="M120 579l90 -90l86 86c59 -39 134 -63 231 -63s172 24 231 63l86 -86l90 90l-87 86c44 68 64 149 64 232c0 81 -20 162 -64 229l87 87l-90 90l-86 -86c-59 39 -134 63 -231 63s-172 -24 -231 -63l-86 86l-90 -90l86 -86c-44 -68 -63 -149 -63 -230c0 -83 19 -164 63 -232
zM335 897c0 108 57 213 192 213s192 -107 192 -214s-58 -214 -192 -214c-123 0 -192 105 -192 215z" />
    <glyph glyph-name="yen" unicode="&#xa5;" horiz-adv-x="1095" 
d="M397 0h287v259h194v199h-194v102h194v196h-150l299 1087h-294l-193 -901l-194 901h-295c98 -363 199 -725 297 -1087h-146v-196h195v-102h-195v-199h195v-259z" />
    <glyph glyph-name="brokenbar" unicode="&#xa6;" horiz-adv-x="441" 
d="M98 -15h234v665h-234v-665zM98 900h234v665h-234v-665z" />
    <glyph glyph-name="section" unicode="&#xa7;" horiz-adv-x="1028" 
d="M101 348c52 -204 179 -366 407 -366c225 0 402 117 402 357c0 111 -68 208 -149 278c102 65 149 170 149 290c0 194 -168 328 -331 427c-44 27 -91 48 -128 72c-33 21 -58 57 -58 98c0 72 43 115 115 115c98 0 156 -118 186 -196l220 73c-48 204 -181 365 -406 365
s-404 -117 -404 -357c0 -114 85 -190 174 -247c-117 -61 -174 -176 -174 -306c0 -209 164 -294 308 -375c45 -25 88 -50 123 -78c52 -42 88 -91 88 -159c0 -72 -43 -115 -115 -115c-97 0 -158 119 -186 197zM541 795c-13 9 -28 18 -44 27c-50 30 -104 67 -104 129
c0 54 36 105 81 133l43 -35c48 -41 106 -100 106 -142c0 -54 -39 -89 -82 -112z" />
    <glyph glyph-name="dieresis" unicode="&#xa8;" horiz-adv-x="927" 
d="M116 1492h303v308h-303v-308zM569 1492h304v308h-304v-308z" />
    <glyph glyph-name="copyright" unicode="&#xa9;" horiz-adv-x="1619" 
d="M896 614c0 -66 3 -216 -93 -216c-74 0 -116 37 -116 332c0 250 39 318 125 318c83 0 82 -142 82 -197h214c0 198 -68 372 -298 372c-315 0 -318 -262 -318 -507c0 -232 6 -497 311 -497c218 0 303 172 303 395h-210zM799 163c-301 0 -515 267 -515 556s214 556 515 556
s514 -268 514 -556s-213 -556 -514 -556zM799 -15c404 0 717 341 717 738c0 398 -312 738 -717 738c-404 0 -716 -340 -716 -738c0 -399 312 -738 716 -738z" />
    <glyph glyph-name="ordfeminine" unicode="&#xaa;" horiz-adv-x="906" 
d="M459 664h224c-69 291 143 901 -301 901c-190 0 -287 -152 -289 -327h208c0 51 5 152 77 152c59 0 63 -84 63 -125v-86c-164 -52 -381 -111 -381 -317c0 -113 95 -209 209 -209c73 0 135 38 177 96zM441 903c-18 -37 -57 -66 -98 -66c-42 0 -58 33 -58 71
c0 73 102 128 156 159v-164z" />
    <glyph glyph-name="guillemotleft" unicode="&#xab;" horiz-adv-x="1054" 
d="M527 64v320l-256 257l256 255v320l-448 -512v-128zM975 64v320l-256 257l256 255v320l-448 -512v-128z" />
    <glyph glyph-name="logicalnot" unicode="&#xac;" horiz-adv-x="829" 
d="M136 453h389v-194h158v417h-547v-223z" />
    <glyph glyph-name="uni00AD" unicode="&#xad;" horiz-adv-x="804" 
d="M142 433h541v255h-541v-255z" />
    <glyph glyph-name="registered" unicode="&#xae;" horiz-adv-x="1619" 
d="M799 163c-301 0 -515 267 -515 556s214 556 515 556s514 -268 514 -556s-213 -556 -514 -556zM799 -15c404 0 717 341 717 738c0 398 -312 738 -717 738c-404 0 -716 -340 -716 -738c0 -399 312 -738 716 -738zM534 251h186v390h58l129 -390h201
c-52 133 -130 290 -156 431c88 53 126 134 126 236c0 191 -92 292 -287 292h-257v-959zM720 766v296h57c88 0 111 -63 111 -140c0 -122 -30 -156 -149 -156h-19z" />
    <glyph glyph-name="macron" unicode="&#xaf;" horiz-adv-x="429" 
d="M-36 1457h507v193h-507v-193z" />
    <glyph glyph-name="degree" unicode="&#xb0;" horiz-adv-x="1095" 
d="M540 1055c249 0 404 158 404 404s-157 402 -404 402c-246 0 -402 -156 -402 -402c0 -245 155 -404 402 -404zM540 1255c-117 0 -180 95 -180 204c0 110 63 201 180 201c119 0 180 -92 180 -202c0 -109 -62 -203 -180 -203z" />
    <glyph glyph-name="plusminus" unicode="&#xb1;" horiz-adv-x="895" 
d="M137 0h610v223h-610v-223zM330 389h224v194h193v223h-193v194h-224v-194h-193v-223h193v-194z" />
    <glyph glyph-name="twosuperior" unicode="&#xb2;" horiz-adv-x="696" 
d="M70 583h547v159h-310c39 51 102 124 161 203c78 103 149 215 149 300c0 170 -102 273 -273 273c-179 0 -274 -114 -274 -287h223c0 38 -7 129 51 129c56 0 50 -78 50 -115c0 -49 -38 -122 -88 -200c-83 -128 -200 -267 -236 -314v-148z" />
    <glyph glyph-name="threesuperior" unicode="&#xb3;" horiz-adv-x="829" 
d="M136 935c0 -173 94 -287 273 -287c173 0 274 103 274 273c0 96 -46 159 -132 194c87 35 132 100 132 195c0 171 -102 273 -274 273c-179 0 -273 -115 -273 -287h222c0 37 -6 130 51 130c56 0 51 -77 51 -116c0 -93 -34 -115 -130 -115v-158c95 0 130 -22 130 -116
c0 -38 5 -115 -51 -115c-57 0 -51 90 -51 129h-222z" />
    <glyph glyph-name="acute" unicode="&#xb4;" horiz-adv-x="638" 
d="M113 1393h204l277 442h-345z" />
    <glyph glyph-name="mu" unicode="&#xb5;" horiz-adv-x="1083" 
d="M134 -179h335v173c59 25 112 70 152 119v-113h336v1305h-336l1 -1006c-21 -26 -62 -80 -106 -80c-42 0 -47 45 -47 83c0 12 1 24 1 33v970h-336v-1484z" />
    <glyph glyph-name="paragraph" unicode="&#xb6;" horiz-adv-x="1020" 
d="M394 0h227v887h113v-887h209v1583h-493c-235 0 -427 -89 -427 -350c0 -218 163 -341 371 -346v-887z" />
    <glyph glyph-name="periodcentered" unicode="&#xb7;" horiz-adv-x="520" 
d="M99 679h323v315h-323v-315z" />
    <glyph glyph-name="cedilla" unicode="&#xb8;" horiz-adv-x="585" 
d="M132 -561c137 0 448 1 448 199c0 114 -132 191 -221 233v129h-171v-242c43 -16 165 -55 165 -116c0 -54 -191 -42 -221 -42v-161z" />
    <glyph glyph-name="onesuperior" unicode="&#xb9;" horiz-adv-x="562" 
d="M198 648h223v935h-86c-71 -87 -166 -149 -266 -199v-153h129v-583z" />
    <glyph glyph-name="ordmasculine" unicode="&#xba;" horiz-adv-x="965" 
d="M5 430c0 -259 81 -445 369 -445c271 0 369 200 369 445v322c0 242 -99 444 -369 444c-288 0 -369 -186 -369 -444v-322zM485 471c0 -95 15 -255 -116 -255c-129 0 -120 163 -120 255v239c0 93 -9 254 120 254c131 0 116 -159 116 -254v-239z" />
    <glyph glyph-name="guillemotright" unicode="&#xbb;" horiz-adv-x="1054" 
d="M527 64l448 512v128l-448 512v-320l256 -255l-256 -257v-320zM79 64l448 512v128l-448 512v-320l256 -255l-256 -257v-320z" />
    <glyph glyph-name="onequarter" unicode="&#xbc;" horiz-adv-x="1695" 
d="M198 648h223v935h-86c-71 -87 -166 -149 -266 -199v-153h129v-583zM424 0h179l578 1835h-180zM936 244h324v-259h222v259h130v158h-130v583h-195l-351 -593v-148zM1167 402l93 184v-184h-93z" />
    <glyph glyph-name="onehalf" unicode="&#xbd;" horiz-adv-x="1694" 
d="M198 648h223v935h-86c-71 -87 -166 -149 -266 -199v-153h129v-583zM424 0h179l578 1835h-180zM1068 -15h547v159h-310c39 51 102 124 161 203c78 103 149 215 149 300c0 170 -102 273 -273 273c-179 0 -274 -114 -274 -287h223c0 38 -7 129 51 129c56 0 50 -78 50 -115
c0 -49 -38 -122 -88 -200c-83 -128 -200 -267 -236 -314v-148z" />
    <glyph glyph-name="threequarters" unicode="&#xbe;" horiz-adv-x="1895" 
d="M136 935c0 -173 94 -287 273 -287c173 0 274 103 274 273c0 96 -46 159 -132 194c87 35 132 100 132 195c0 171 -102 273 -274 273c-179 0 -273 -115 -273 -287h222c0 37 -6 130 51 130c56 0 51 -77 51 -116c0 -93 -34 -115 -130 -115v-158c95 0 130 -22 130 -116
c0 -38 5 -115 -51 -115c-57 0 -51 90 -51 129h-222zM1069 244h324v-259h222v259h130v158h-130v583h-195l-351 -593v-148zM1300 402l93 184v-184h-93zM587 0h179l578 1835h-180z" />
    <glyph glyph-name="questiondown" unicode="&#xbf;" horiz-adv-x="1182" 
d="M935 1320h-334v-280c-223 -129 -353 -365 -353 -622c0 -291 169 -453 463 -453c306 0 437 185 437 427c0 66 -10 137 -29 210l-314 -60c12 -39 19 -84 19 -124c0 -84 -34 -159 -113 -159c-81 0 -126 47 -126 139c0 221 183 420 350 534v388zM935 1800h-334v-324h334v324z
" />
    <glyph glyph-name="Agrave" unicode="&#xc0;" 
d="M467 1889h205l-136 442h-346zM18 0h361l70 385h235l74 -385h359l-388 1800h-322zM474 609l95 668l91 -668h-186z" />
    <glyph glyph-name="Aacute" unicode="&#xc1;" 
d="M451 1889h204l277 442h-345zM18 0h361l70 385h235l74 -385h359l-388 1800h-322zM474 609l95 668l91 -668h-186z" />
    <glyph glyph-name="Acircumflex" unicode="&#xc2;" 
d="M221 1889h274l73 202l75 -202h275l-206 406h-290zM18 0h361l70 385h235l74 -385h359l-388 1800h-322zM474 609l95 668l91 -668h-186z" />
    <glyph glyph-name="Atilde" unicode="&#xc3;" 
d="M372 1926c0 28 -3 62 49 62c95 0 205 -73 304 -73c144 0 156 190 156 298h-155c0 -24 0 -46 -35 -46c-62 0 -171 58 -301 58c-161 0 -185 -147 -185 -299h167zM18 0h361l70 385h235l74 -385h359l-388 1800h-322zM474 609l95 668l91 -668h-186z" />
    <glyph glyph-name="Adieresis" unicode="&#xc4;" 
d="M187 1988h303v308h-303v-308zM640 1988h304v308h-304v-308zM18 0h361l70 385h235l74 -385h359l-388 1800h-322zM474 609l95 668l91 -668h-186z" />
    <glyph glyph-name="Aring" unicode="&#xc5;" 
d="M546 2041c-60 0 -81 70 -81 119c0 48 22 117 81 117c58 0 78 -73 78 -119c0 -47 -20 -117 -78 -117zM293 2159c0 -149 109 -239 253 -239s253 90 253 239c0 148 -110 239 -253 239c-144 0 -253 -90 -253 -239zM18 0h361l70 385h235l74 -385h359l-388 1800h-322zM474 609
l95 668l91 -668h-186z" />
    <glyph glyph-name="AE" unicode="&#xc6;" horiz-adv-x="1609" 
d="M44 0h384l142 385h284v-385h724v250h-387v554h274v256h-274v490h387v250h-761zM643 609l211 574v-574h-211z" />
    <glyph glyph-name="Ccedilla" unicode="&#xc7;" horiz-adv-x="1174" 
d="M462 -561c137 0 448 1 448 199c0 114 -132 191 -221 233v129h-171v-242c43 -16 165 -55 165 -116c0 -54 -191 -42 -221 -42v-161zM84 601c0 -347 122 -636 522 -636c391 0 499 299 504 623l1 152h-356v-185c1 -140 -16 -309 -149 -309c-138 0 -158 153 -158 265v777
c0 111 21 266 158 266c138 0 147 -174 147 -308v-166h358v155c0 347 -132 600 -505 600c-401 0 -522 -282 -522 -638v-596z" />
    <glyph glyph-name="Egrave" unicode="&#xc8;" horiz-adv-x="889" 
d="M369 1906h205l-136 442h-346zM107 0h751v250h-387v554h274v256h-274v490h387v250h-751v-1800z" />
    <glyph glyph-name="Eacute" unicode="&#xc9;" horiz-adv-x="889" 
d="M353 1906h204l277 442h-345zM107 0h751v250h-387v554h274v256h-274v490h387v250h-751v-1800z" />
    <glyph glyph-name="Ecircumflex" unicode="&#xca;" horiz-adv-x="889" 
d="M123 1906h274l73 202l75 -202h275l-206 406h-290zM107 0h751v250h-387v554h274v256h-274v490h387v250h-751v-1800z" />
    <glyph glyph-name="Edieresis" unicode="&#xcb;" horiz-adv-x="889" 
d="M89 2005h303v308h-303v-308zM542 2005h304v308h-304v-308zM107 0h751v250h-387v554h274v256h-274v490h387v250h-751v-1800z" />
    <glyph glyph-name="Igrave" unicode="&#xcc;" horiz-adv-x="578" 
d="M191 1889h205l-136 442h-346zM107 0h364v1800h-364v-1800z" />
    <glyph glyph-name="Iacute" unicode="&#xcd;" horiz-adv-x="578" 
d="M175 1889h204l277 442h-345zM107 0h364v1800h-364v-1800z" />
    <glyph glyph-name="Icircumflex" unicode="&#xce;" horiz-adv-x="578" 
d="M-55 1889h274l73 202l75 -202h275l-206 406h-290zM107 0h364v1800h-364v-1800z" />
    <glyph glyph-name="Idieresis" unicode="&#xcf;" horiz-adv-x="578" 
d="M-89 1988h303v308h-303v-308zM364 1988h304v308h-304v-308zM107 0h364v1800h-364v-1800z" />
    <glyph glyph-name="Eth" unicode="&#xd0;" horiz-adv-x="1156" 
d="M97 0h372c518 0 601 207 601 627v590c0 409 -115 583 -597 583h-376v-768h-82v-223h82v-809zM461 255v554h124v223h-124v512h11c156 -1 234 -21 234 -148v-969c0 -159 -50 -171 -230 -172h-15z" />
    <glyph glyph-name="Ntilde" unicode="&#xd1;" horiz-adv-x="1173" 
d="M388 1926c0 28 -3 62 49 62c95 0 205 -73 304 -73c144 0 156 190 156 298h-155c0 -24 0 -46 -35 -46c-62 0 -171 58 -301 58c-161 0 -185 -147 -185 -299h167zM107 0h313v999l394 -999h252v1801h-302v-942l-395 942h-262v-1801z" />
    <glyph glyph-name="Ograve" unicode="&#xd2;" horiz-adv-x="1221" 
d="M510 1889h205l-136 442h-346zM773 510c0 -116 -22 -265 -163 -265c-139 0 -162 151 -162 265v778c0 113 24 266 162 266c139 0 163 -151 163 -266v-778zM84 592c0 -347 129 -627 526 -627c399 0 527 289 527 636v596c0 357 -126 638 -527 638s-526 -281 -526 -638v-605z
" />
    <glyph glyph-name="Oacute" unicode="&#xd3;" horiz-adv-x="1221" 
d="M494 1889h204l277 442h-345zM773 510c0 -116 -22 -265 -163 -265c-139 0 -162 151 -162 265v778c0 113 24 266 162 266c139 0 163 -151 163 -266v-778zM84 592c0 -347 129 -627 526 -627c399 0 527 289 527 636v596c0 357 -126 638 -527 638s-526 -281 -526 -638v-605z
" />
    <glyph glyph-name="Ocircumflex" unicode="&#xd4;" horiz-adv-x="1221" 
d="M264 1889h274l73 202l75 -202h275l-206 406h-290zM773 510c0 -116 -22 -265 -163 -265c-139 0 -162 151 -162 265v778c0 113 24 266 162 266c139 0 163 -151 163 -266v-778zM84 592c0 -347 129 -627 526 -627c399 0 527 289 527 636v596c0 357 -126 638 -527 638
s-526 -281 -526 -638v-605z" />
    <glyph glyph-name="Otilde" unicode="&#xd5;" horiz-adv-x="1221" 
d="M439 1926c0 28 -3 62 49 62c95 0 205 -73 304 -73c144 0 156 190 156 298h-155c0 -24 0 -46 -35 -46c-62 0 -171 58 -301 58c-161 0 -185 -147 -185 -299h167zM773 510c0 -116 -22 -265 -163 -265c-139 0 -162 151 -162 265v778c0 113 24 266 162 266
c139 0 163 -151 163 -266v-778zM84 592c0 -347 129 -627 526 -627c399 0 527 289 527 636v596c0 357 -126 638 -527 638s-526 -281 -526 -638v-605z" />
    <glyph glyph-name="Odieresis" unicode="&#xd6;" horiz-adv-x="1221" 
d="M230 1988h303v308h-303v-308zM683 1988h304v308h-304v-308zM773 510c0 -116 -22 -265 -163 -265c-139 0 -162 151 -162 265v778c0 113 24 266 162 266c139 0 163 -151 163 -266v-778zM84 592c0 -347 129 -627 526 -627c399 0 527 289 527 636v596
c0 357 -126 638 -527 638s-526 -281 -526 -638v-605z" />
    <glyph glyph-name="multiply" unicode="&#xd7;" horiz-adv-x="829" 
d="M65 468l150 -150l194 195l195 -195l149 150c-65 63 -130 129 -194 194l194 194l-149 151l-195 -195l-194 195l-150 -151l194 -194z" />
    <glyph glyph-name="Oslash" unicode="&#xd8;" horiz-adv-x="1221" 
d="M258 -250l96 -20l71 260c54 -16 115 -25 185 -25c399 0 527 289 527 636v596c0 244 -60 452 -225 560l80 290l-97 20l-73 -266c-60 22 -131 34 -212 34c-401 0 -526 -281 -526 -638v-605c0 -249 66 -463 250 -565zM773 501c0 -116 -22 -265 -162 -265
c-141 0 -163 149 -163 265v787c0 113 24 266 162 266s162 -153 162 -266z" />
    <glyph glyph-name="Ugrave" unicode="&#xd9;" horiz-adv-x="1248" 
d="M526 1889h205l-136 442h-346zM99 669c0 -371 68 -704 525 -704c458 0 525 333 525 704v1131h-364v-1120c0 -303 1 -434 -161 -434c-161 0 -161 131 -161 434v1120h-364v-1131z" />
    <glyph glyph-name="Uacute" unicode="&#xda;" horiz-adv-x="1248" 
d="M510 1889h204l277 442h-345zM99 669c0 -371 68 -704 525 -704c458 0 525 333 525 704v1131h-364v-1120c0 -303 1 -434 -161 -434c-161 0 -161 131 -161 434v1120h-364v-1131z" />
    <glyph glyph-name="Ucircumflex" unicode="&#xdb;" horiz-adv-x="1248" 
d="M280 1889h274l73 202l75 -202h275l-206 406h-290zM99 669c0 -371 68 -704 525 -704c458 0 525 333 525 704v1131h-364v-1120c0 -303 1 -434 -161 -434c-161 0 -161 131 -161 434v1120h-364v-1131z" />
    <glyph glyph-name="Udieresis" unicode="&#xdc;" horiz-adv-x="1248" 
d="M246 1988h303v308h-303v-308zM699 1988h304v308h-304v-308zM99 669c0 -371 68 -704 525 -704c458 0 525 333 525 704v1131h-364v-1120c0 -303 1 -434 -161 -434c-161 0 -161 131 -161 434v1120h-364v-1131z" />
    <glyph glyph-name="Yacute" unicode="&#xdd;" horiz-adv-x="1035" 
d="M398 1889h204l277 442h-345zM341 0h352v595l339 1205h-333c-61 -260 -124 -531 -185 -791l-168 791h-343l338 -1205v-595z" />
    <glyph glyph-name="Thorn" unicode="&#xde;" horiz-adv-x="1020" 
d="M97 0h364v534h14c315 5 506 113 506 520c0 318 -125 510 -449 510h-72v236h-363v-1800zM461 791v514h20c154 0 155 -102 155 -244c0 -183 -1 -270 -160 -270h-15z" />
    <glyph glyph-name="germandbls" unicode="&#xdf;" horiz-adv-x="1193" 
d="M99 0h366v1363c0 101 3 222 116 222c102 0 108 -128 108 -236c0 -119 -35 -280 -160 -281h-1v-253h1c159 -1 237 -114 237 -280c0 -218 -36 -320 -238 -320v-250c403 0 594 172 594 530c0 202 -104 414 -356 482c190 72 255 217 255 372c0 303 -152 485 -461 485
c-320 0 -461 -221 -461 -476v-1358z" />
    <glyph glyph-name="agrave" unicode="&#xe0;" horiz-adv-x="976" 
d="M408 1394h205l-136 442h-346zM620 0h308c-27 117 -43 227 -43 347v620c0 202 -178 368 -376 368c-289 0 -441 -168 -441 -466h327v74c0 64 3 137 81 137c57 0 75 -50 75 -137v-110c-270 -111 -493 -220 -493 -542c0 -152 70 -320 270 -320c119 0 217 34 259 164zM552 295
c-23 -29 -53 -70 -98 -70c-54 0 -68 53 -68 97c0 130 78 224 165 294z" />
    <glyph glyph-name="aacute" unicode="&#xe1;" horiz-adv-x="976" 
d="M392 1394h204l277 442h-345zM620 0h308c-27 117 -43 227 -43 347v620c0 202 -178 368 -376 368c-289 0 -441 -168 -441 -466h327v74c0 64 3 137 81 137c57 0 75 -50 75 -137v-110c-270 -111 -493 -220 -493 -542c0 -152 70 -320 270 -320c119 0 217 34 259 164zM552 295
c-23 -29 -53 -70 -98 -70c-54 0 -68 53 -68 97c0 130 78 224 165 294z" />
    <glyph glyph-name="acircumflex" unicode="&#xe2;" horiz-adv-x="976" 
d="M162 1394h274l73 202l75 -202h275l-206 406h-290zM620 0h308c-27 117 -43 227 -43 347v620c0 202 -178 368 -376 368c-289 0 -441 -168 -441 -466h327v74c0 64 3 137 81 137c57 0 75 -50 75 -137v-110c-270 -111 -493 -220 -493 -542c0 -152 70 -320 270 -320
c119 0 217 34 259 164zM552 295c-23 -29 -53 -70 -98 -70c-54 0 -68 53 -68 97c0 130 78 224 165 294z" />
    <glyph glyph-name="atilde" unicode="&#xe3;" horiz-adv-x="976" 
d="M313 1431c0 28 -3 62 49 62c95 0 205 -73 304 -73c144 0 156 190 156 298h-155c0 -24 0 -46 -35 -46c-62 0 -171 58 -301 58c-161 0 -185 -147 -185 -299h167zM620 0h308c-27 117 -43 227 -43 347v620c0 202 -178 368 -376 368c-289 0 -441 -168 -441 -466h327v74
c0 64 3 137 81 137c57 0 75 -50 75 -137v-110c-270 -111 -493 -220 -493 -542c0 -152 70 -320 270 -320c119 0 217 34 259 164zM552 295c-23 -29 -53 -70 -98 -70c-54 0 -68 53 -68 97c0 130 78 224 165 294z" />
    <glyph glyph-name="adieresis" unicode="&#xe4;" horiz-adv-x="976" 
d="M128 1493h303v308h-303v-308zM581 1493h304v308h-304v-308zM620 0h308c-27 117 -43 227 -43 347v620c0 202 -178 368 -376 368c-289 0 -441 -168 -441 -466h327v74c0 64 3 137 81 137c57 0 75 -50 75 -137v-110c-270 -111 -493 -220 -493 -542c0 -152 70 -320 270 -320
c119 0 217 34 259 164zM552 295c-23 -29 -53 -70 -98 -70c-54 0 -68 53 -68 97c0 130 78 224 165 294z" />
    <glyph glyph-name="aring" unicode="&#xe5;" horiz-adv-x="976" 
d="M487 1546c-60 0 -81 70 -81 119c0 48 22 117 81 117c58 0 78 -73 78 -119c0 -47 -20 -117 -78 -117zM234 1664c0 -149 109 -239 253 -239s253 90 253 239c0 148 -110 239 -253 239c-144 0 -253 -90 -253 -239zM620 0h308c-27 117 -43 227 -43 347v620
c0 202 -178 368 -376 368c-289 0 -441 -168 -441 -466h327v74c0 64 3 137 81 137c57 0 75 -50 75 -137v-110c-270 -111 -493 -220 -493 -542c0 -152 70 -320 270 -320c119 0 217 34 259 164zM552 295c-23 -29 -53 -70 -98 -70c-54 0 -68 53 -68 97c0 130 78 224 165 294z
" />
    <glyph glyph-name="ae" unicode="&#xe6;" horiz-adv-x="1427" 
d="M400 869c0 22 -3 51 -3 81c0 59 11 120 72 120c80 0 87 -112 87 -189v-135c-282 -68 -493 -134 -493 -455c0 -215 157 -320 328 -320c111 0 250 62 312 174c32 -104 152 -174 269 -174h16c213 12 371 144 371 368v147h-334c0 -22 3 -61 3 -102c0 -71 -10 -148 -70 -148
c-59 0 -64 67 -64 110v309c134 23 474 64 474 343c0 150.625 -160.828 337 -390 337c-100 0 -201 -42 -260 -102c-47 58 -131 99 -204 102c-9 0 -19 1 -28 1c-262 0 -413 -179 -413 -467h327zM581 421c0 -99 -35 -196 -122 -196c-65 0 -93 71 -93 129c0 80 21 167 209 232
c0 0 6 -147 6 -165zM894 964c0 42 31 114 84 114c82 0 115 -54 115 -110c0 -125.144 -199 -164 -199 -164v160z" />
    <glyph glyph-name="ccedilla" unicode="&#xe7;" horiz-adv-x="928" 
d="M333 -561c137 0 448 1 448 199c0 114 -132 191 -221 233v129h-171v-242c43 -16 165 -55 165 -116c0 -54 -191 -42 -221 -42v-161zM78 334c0 -223 189 -363 401 -363c213 0 401 139 401 363v195h-331v-139c0 -106 -4 -165 -70 -165c-58 0 -64 66 -64 110v646
c0 42 11 99 64 99c63 0 70 -61 70 -151v-149h331v114c0 268 -120 441 -401 441c-280 0 -401 -174 -401 -441v-560z" />
    <glyph glyph-name="egrave" unicode="&#xe8;" horiz-adv-x="940" 
d="M382 1394h205l-136 442h-346zM78 339c0 -223 189 -368 401 -368c213 0 401 144 401 368v147h-331v-143c0 -56 -10 -118 -70 -118c-59 0 -64 67 -64 110v289h465v270c0 268 -120 441 -401 441c-280 0 -401 -174 -401 -441v-555zM415 801v180c0 42 11 99 64 99
c55 0 67 -54 67 -99v-180h-131z" />
    <glyph glyph-name="eacute" unicode="&#xe9;" horiz-adv-x="940" 
d="M366 1394h204l277 442h-345zM78 339c0 -223 189 -368 401 -368c213 0 401 144 401 368v147h-331v-143c0 -56 -10 -118 -70 -118c-59 0 -64 67 -64 110v289h465v270c0 268 -120 441 -401 441c-280 0 -401 -174 -401 -441v-555zM415 801v180c0 42 11 99 64 99
c55 0 67 -54 67 -99v-180h-131z" />
    <glyph glyph-name="ecircumflex" unicode="&#xea;" horiz-adv-x="940" 
d="M136 1394h274l73 202l75 -202h275l-206 406h-290zM78 339c0 -223 189 -368 401 -368c213 0 401 144 401 368v147h-331v-143c0 -56 -10 -118 -70 -118c-59 0 -64 67 -64 110v289h465v270c0 268 -120 441 -401 441c-280 0 -401 -174 -401 -441v-555zM415 801v180
c0 42 11 99 64 99c55 0 67 -54 67 -99v-180h-131z" />
    <glyph glyph-name="edieresis" unicode="&#xeb;" horiz-adv-x="940" 
d="M102 1493h303v308h-303v-308zM555 1493h304v308h-304v-308zM78 339c0 -223 189 -368 401 -368c213 0 401 144 401 368v147h-331v-143c0 -56 -10 -118 -70 -118c-59 0 -64 67 -64 110v289h465v270c0 268 -120 441 -401 441c-280 0 -401 -174 -401 -441v-555zM415 801v180
c0 42 11 99 64 99c55 0 67 -54 67 -99v-180h-131z" />
    <glyph glyph-name="igrave" unicode="&#xec;" horiz-adv-x="532" 
d="M320 1393h205l-136 442h-346zM124 0h337v1305h-337v-1305z" />
    <glyph glyph-name="iacute" unicode="&#xed;" horiz-adv-x="532" 
d="M204 1393h204l277 442h-345zM124 0h337v1305h-337v-1305z" />
    <glyph glyph-name="icircumflex" unicode="&#xee;" horiz-adv-x="532" 
d="M-51 1392h274l73 202l75 -202h275l-206 406h-290zM124 0h337v1305h-337v-1305z" />
    <glyph glyph-name="idieresis" unicode="&#xef;" horiz-adv-x="532" 
d="M-83 1491h303v308h-303v-308zM370 1491h304v308h-304v-308zM124 0h337v1305h-337v-1305z" />
    <glyph glyph-name="eth" unicode="&#xf0;" horiz-adv-x="988" 
d="M87 341c0 -223 184 -370 396 -370c213 0 407 146 407 370l-1 847c0 120 -14 230 -49 325l134 68l-66 140l-143 -73c-94 117 -251 187 -501 187l-48 -265c131 0 211 -21 260 -69l-155 -79l66 -140l154 78c10 -57 12 -127 12 -212c-50 39 -111 58 -173 58
c-146 0 -293 -115 -293 -314v-551zM552 340c0 -46 -9 -104 -69 -104c-57 0 -61 60 -61 104v528c0 51 32 74 65 74s66 -23 66 -68z" />
    <glyph glyph-name="ntilde" unicode="&#xf1;" horiz-adv-x="1011" 
d="M302 1443c0 28 -3 62 49 62c95 0 205 -73 304 -73c144 0 156 190 156 298h-155c0 -24 0 -46 -35 -46c-62 0 -171 58 -301 58c-161 0 -185 -147 -185 -299h167zM96 0h337v1012c19 22 55 68 94 68c56 0 56 -59 56 -87v-993h337v1052c0 131 -86 282 -231 282
c-100 0 -194 -51 -256 -121v92h-337v-1305z" />
    <glyph glyph-name="ograve" unicode="&#xf2;" horiz-adv-x="973" 
d="M397 1407h205l-136 442h-346zM78 339c0 -223 189 -368 406 -368c218 0 411 144 411 368v555c0 268 -123 440 -411 440s-406 -173 -406 -440v-555zM561 335c0 -46 -8 -110 -77 -110c-67 0 -69 66 -69 110v646c0 42 8 99 69 99c63 0 77 -54 77 -99v-646z" />
    <glyph glyph-name="oacute" unicode="&#xf3;" horiz-adv-x="973" 
d="M381 1407h204l277 442h-345zM78 339c0 -223 189 -368 406 -368c218 0 411 144 411 368v555c0 268 -123 440 -411 440s-406 -173 -406 -440v-555zM561 335c0 -46 -8 -110 -77 -110c-67 0 -69 66 -69 110v646c0 42 8 99 69 99c63 0 77 -54 77 -99v-646z" />
    <glyph glyph-name="ocircumflex" unicode="&#xf4;" horiz-adv-x="973" 
d="M151 1407h274l73 202l75 -202h275l-206 406h-290zM78 339c0 -223 189 -368 406 -368c218 0 411 144 411 368v555c0 268 -123 440 -411 440s-406 -173 -406 -440v-555zM561 335c0 -46 -8 -110 -77 -110c-67 0 -69 66 -69 110v646c0 42 8 99 69 99c63 0 77 -54 77 -99v-646
z" />
    <glyph glyph-name="otilde" unicode="&#xf5;" horiz-adv-x="973" 
d="M302 1444c0 28 -3 62 49 62c95 0 205 -73 304 -73c144 0 156 190 156 298h-155c0 -24 0 -46 -35 -46c-62 0 -171 58 -301 58c-161 0 -185 -147 -185 -299h167zM78 339c0 -223 189 -368 406 -368c218 0 411 144 411 368v555c0 268 -123 440 -411 440s-406 -173 -406 -440
v-555zM561 335c0 -46 -8 -110 -77 -110c-67 0 -69 66 -69 110v646c0 42 8 99 69 99c63 0 77 -54 77 -99v-646z" />
    <glyph glyph-name="odieresis" unicode="&#xf6;" horiz-adv-x="973" 
d="M117 1506h303v308h-303v-308zM570 1506h304v308h-304v-308zM78 339c0 -223 189 -368 406 -368c218 0 411 144 411 368v555c0 268 -123 440 -411 440s-406 -173 -406 -440v-555zM561 335c0 -46 -8 -110 -77 -110c-67 0 -69 66 -69 110v646c0 42 8 99 69 99
c63 0 77 -54 77 -99v-646z" />
    <glyph glyph-name="divide" unicode="&#xf7;" horiz-adv-x="696" 
d="M6 583h676v223h-676v-223zM200 890h287v287h-287v-287zM200 236h287v287h-287v-287z" />
    <glyph glyph-name="oslash" unicode="&#xf8;" horiz-adv-x="983" 
d="M208 -233l76 -20l70 245c43 -13 88 -20 135 -20c218 0 411 143 411 367v555c0 177 -54 313 -175 384l77 266l-77 20l-73 -253c-47 15 -102 23 -163 23c-288 0 -406 -173 -406 -440v-555c0 -146 81 -258 198 -318zM566 346c0 -46 -8 -110 -77 -110c-67 0 -69 66 -69 110
v618c0 42 8 99 69 99c63 0 77 -54 77 -99v-618z" />
    <glyph glyph-name="ugrave" unicode="&#xf9;" horiz-adv-x="1005" 
d="M393 1393h205l-136 442h-346zM87 253c0 -131 85 -282 231 -282c99 0 194 65 257 142v-113h337v1305h-337v-1006c-21 -26 -61 -74 -105 -74c-46 0 -46 73 -46 110v970h-337v-1052z" />
    <glyph glyph-name="uacute" unicode="&#xfa;" horiz-adv-x="1005" 
d="M377 1393h204l277 442h-345zM87 253c0 -131 85 -282 231 -282c99 0 194 65 257 142v-113h337v1305h-337v-1006c-21 -26 -61 -74 -105 -74c-46 0 -46 73 -46 110v970h-337v-1052z" />
    <glyph glyph-name="ucircumflex" unicode="&#xfb;" horiz-adv-x="1005" 
d="M147 1393h274l73 202l75 -202h275l-206 406h-290zM87 253c0 -131 85 -282 231 -282c99 0 194 65 257 142v-113h337v1305h-337v-1006c-21 -26 -61 -74 -105 -74c-46 0 -46 73 -46 110v970h-337v-1052z" />
    <glyph glyph-name="udieresis" unicode="&#xfc;" horiz-adv-x="1005" 
d="M113 1492h303v308h-303v-308zM566 1492h304v308h-304v-308zM87 253c0 -131 85 -282 231 -282c99 0 194 65 257 142v-113h337v1305h-337v-1006c-21 -26 -61 -74 -105 -74c-46 0 -46 73 -46 110v970h-337v-1052z" />
    <glyph glyph-name="yacute" unicode="&#xfd;" horiz-adv-x="872" 
d="M316 1393h204l277 442h-345zM87 -311h43c214 0 396 42 446 276l285 1340h-309l-106 -728l-121 728h-307c29 -137 187 -806 237 -1080c10 -53 15 -91 15 -108c0 -134 -48 -192 -183 -195v-233z" />
    <glyph glyph-name="thorn" unicode="&#xfe;" horiz-adv-x="988" 
d="M567 310c0 -42 -3 -94 -46 -94c-36 0 -69 56 -85 81v708c17 25 50 78 85 78c42 0 46 -47 46 -86v-687zM99 -371h337v469c49 -78 124 -127 207 -127c151 0 259 134 259 279v801c0 145 -108 284 -259 284c-84 0 -158 -52 -207 -118v583h-337v-2171z" />
    <glyph glyph-name="ydieresis" unicode="&#xff;" horiz-adv-x="872" 
d="M52 1492h303v308h-303v-308zM505 1492h304v308h-304v-308zM87 -311h43c214 0 396 42 446 276l285 1340h-309l-106 -728l-121 728h-307c29 -137 187 -806 237 -1080c10 -53 15 -91 15 -108c0 -134 -48 -192 -183 -195v-233z" />
    <glyph glyph-name="Amacron" unicode="&#x100;" 
d="M314 1952h507v193h-507v-193zM18 0h361l70 385h235l74 -385h359l-388 1800h-322zM474 609l95 668l91 -668h-186z" />
    <glyph glyph-name="amacron" unicode="&#x101;" horiz-adv-x="976" 
d="M234 1457h507v193h-507v-193zM620 0h308c-27 117 -43 227 -43 347v620c0 202 -178 368 -376 368c-289 0 -441 -168 -441 -466h327v74c0 64 3 137 81 137c57 0 75 -50 75 -137v-110c-270 -111 -493 -220 -493 -542c0 -152 70 -320 270 -320c119 0 217 34 259 164zM552 295
c-23 -29 -53 -70 -98 -70c-54 0 -68 53 -68 97c0 130 78 224 165 294z" />
    <glyph glyph-name="Abreve" unicode="&#x102;" 
d="M316 2180c0 -148 106 -248 253 -248s253 100 253 248h-172c0 -49 -19 -127 -81 -127s-81 78 -81 127h-172zM18 0h361l70 385h235l74 -385h359l-388 1800h-322zM474 609l95 668l91 -668h-186z" />
    <glyph glyph-name="abreve" unicode="&#x103;" horiz-adv-x="976" 
d="M257 1685c0 -148 106 -248 253 -248s253 100 253 248h-172c0 -49 -19 -127 -81 -127s-81 78 -81 127h-172zM620 0h308c-27 117 -43 227 -43 347v620c0 202 -178 368 -376 368c-289 0 -441 -168 -441 -466h327v74c0 64 3 137 81 137c57 0 75 -50 75 -137v-110
c-270 -111 -493 -220 -493 -542c0 -152 70 -320 270 -320c119 0 217 34 259 164zM552 295c-23 -29 -53 -70 -98 -70c-54 0 -68 53 -68 97c0 130 78 224 165 294z" />
    <glyph glyph-name="Aogonek" unicode="&#x104;" 
d="M1117 -358c-77 0 -193 -1 -193 117c0 92 42 171 72 257h-148c-78 -75 -151 -201 -151 -311c0 -218 236 -227 399 -223zM18 0h361l70 385h235l74 -385h359l-388 1800h-322zM474 609l95 668l91 -668h-186z" />
    <glyph glyph-name="aogonek" unicode="&#x105;" horiz-adv-x="976" 
d="M928 -358c-77 0 -193 -1 -193 117c0 92 42 171 72 257h-148c-78 -75 -151 -201 -151 -311c0 -218 236 -227 399 -223zM620 0h308c-27 117 -43 227 -43 347v620c0 202 -178 368 -376 368c-289 0 -441 -168 -441 -466h327v74c0 64 3 137 81 137c57 0 75 -50 75 -137v-110
c-270 -111 -493 -220 -493 -542c0 -152 70 -320 270 -320c119 0 217 34 259 164zM552 295c-23 -29 -53 -70 -98 -70c-54 0 -68 53 -68 97c0 130 78 224 165 294z" />
    <glyph glyph-name="Cacute" unicode="&#x106;" horiz-adv-x="1174" 
d="M488 1889h204l277 442h-345zM84 601c0 -347 122 -636 522 -636c391 0 499 299 504 623l1 152h-356v-185c1 -140 -16 -309 -149 -309c-138 0 -158 153 -158 265v777c0 111 21 266 158 266c138 0 147 -174 147 -308v-166h358v155c0 347 -132 600 -505 600
c-401 0 -522 -282 -522 -638v-596z" />
    <glyph glyph-name="cacute" unicode="&#x107;" horiz-adv-x="928" 
d="M362 1394h204l277 442h-345zM78 334c0 -223 189 -363 401 -363c213 0 401 139 401 363v195h-331v-139c0 -106 -4 -165 -70 -165c-58 0 -64 66 -64 110v646c0 42 11 99 64 99c63 0 70 -61 70 -151v-149h331v114c0 268 -120 441 -401 441c-280 0 -401 -174 -401 -441v-560z
" />
    <glyph glyph-name="Ccircumflex" unicode="&#x108;" horiz-adv-x="1174" 
d="M258 1889h274l73 202l75 -202h275l-206 406h-290zM84 601c0 -347 122 -636 522 -636c391 0 499 299 504 623l1 152h-356v-185c1 -140 -16 -309 -149 -309c-138 0 -158 153 -158 265v777c0 111 21 266 158 266c138 0 147 -174 147 -308v-166h358v155
c0 347 -132 600 -505 600c-401 0 -522 -282 -522 -638v-596z" />
    <glyph glyph-name="ccircumflex" unicode="&#x109;" horiz-adv-x="928" 
d="M132 1394h274l73 202l75 -202h275l-206 406h-290zM78 334c0 -223 189 -363 401 -363c213 0 401 139 401 363v195h-331v-139c0 -106 -4 -165 -70 -165c-58 0 -64 66 -64 110v646c0 42 11 99 64 99c63 0 70 -61 70 -151v-149h331v114c0 268 -120 441 -401 441
c-280 0 -401 -174 -401 -441v-560z" />
    <glyph glyph-name="Ccaron" unicode="&#x10c;" horiz-adv-x="1174" 
d="M453 1867h290l206 406h-275l-75 -201l-73 201h-274zM84 601c0 -347 122 -636 522 -636c391 0 499 299 504 623l1 152h-356v-185c1 -140 -16 -309 -149 -309c-138 0 -158 153 -158 265v777c0 111 21 266 158 266c138 0 147 -174 147 -308v-166h358v155
c0 347 -132 600 -505 600c-401 0 -522 -282 -522 -638v-596z" />
    <glyph glyph-name="ccaron" unicode="&#x10d;" horiz-adv-x="928" 
d="M327 1372h290l206 406h-275l-75 -201l-73 201h-274zM78 334c0 -223 189 -363 401 -363c213 0 401 139 401 363v195h-331v-139c0 -106 -4 -165 -70 -165c-58 0 -64 66 -64 110v646c0 42 11 99 64 99c63 0 70 -61 70 -151v-149h331v114c0 268 -120 441 -401 441
c-280 0 -401 -174 -401 -441v-560z" />
    <glyph glyph-name="Emacron" unicode="&#x112;" horiz-adv-x="889" 
d="M191 1952h507v193h-507v-193zM107 0h751v250h-387v554h274v256h-274v490h387v250h-751v-1800z" />
    <glyph glyph-name="emacron" unicode="&#x113;" horiz-adv-x="940" 
d="M216 1457h507v193h-507v-193zM78 339c0 -223 189 -368 401 -368c213 0 401 144 401 368v147h-331v-143c0 -56 -10 -118 -70 -118c-59 0 -64 67 -64 110v289h465v270c0 268 -120 441 -401 441c-280 0 -401 -174 -401 -441v-555zM415 801v180c0 42 11 99 64 99
c55 0 67 -54 67 -99v-180h-131z" />
    <glyph glyph-name="Eogonek" unicode="&#x118;" horiz-adv-x="889" 
d="M858 -358c-77 0 -193 -1 -193 117c0 92 42 171 72 257h-148c-78 -75 -151 -201 -151 -311c0 -218 236 -227 399 -223zM107 0h751v250h-387v554h274v256h-274v490h387v250h-751v-1800z" />
    <glyph glyph-name="eogonek" unicode="&#x119;" horiz-adv-x="940" 
d="M659 -366c-77 0 -193 -1 -193 117c0 92 42 171 72 257h-148c-78 -75 -151 -201 -151 -311c0 -218 236 -227 399 -223zM78 339c0 -223 189 -368 401 -368c213 0 401 144 401 368v147h-331v-143c0 -56 -10 -118 -70 -118c-59 0 -64 67 -64 110v289h465v270
c0 268 -120 441 -401 441c-280 0 -401 -174 -401 -441v-555zM415 801v180c0 42 11 99 64 99c55 0 67 -54 67 -99v-180h-131z" />
    <glyph glyph-name="Gcedilla" unicode="&#x122;" horiz-adv-x="1238" 
d="M500 -639c273 0 258 214 254 561h-323v-318h110c-1 -84 -9 -77 -81 -77zM84 563c0 -279 122 -598 459 -598c119 0 245 65 306 161l46 -126h250v926h-570v-261h206v-144c0 -117 -23 -275 -166 -275s-167 146 -167 265v777c0 118 25 266 167 266c153 0 167 -167 167 -299
v-126h348v106c0 347 -135 600 -515 600c-404 0 -531 -277 -531 -638v-634z" />
    <glyph glyph-name="gcedilla" unicode="&#x123;" horiz-adv-x="965" 
d="M584 1980c-273 0 -258 -214 -254 -561h323v318h-110c1 84 9 77 81 77zM957 1335c-84 0 -188 -18 -245 -83c-57 61 -146 83 -232 83c-285 0 -397 -241 -397 -487c0 -127 40 -261 102 -374c-41 -52 -133 -172 -133 -226c0 -39 81 -86 117 -104c-80 -58 -137 -156 -137 -250
c0 -222 319 -235 481 -235c236 0 450 60 450 346c0 217 -282 247 -467 274c-90 13 -158 26 -158 60c0 9 23 54 23 54s67 -15 108 -15c259 0 401 209 401 445c0 74 -3 157 -42 227c36 36 94 44 143 44l28 241h-42zM472 632c-76 0 -77 161 -77 219c0 113 3 251 82 251
c76 0 77 -180 77 -238c0 -61 -1 -232 -82 -232zM368 79c90 -4 273 -14 273 -116c0 -73 -89 -68 -120 -68c-59 0 -222 4 -222 59c0 46 24 92 45 125h24z" />
    <glyph glyph-name="Hcircumflex" unicode="&#x124;" horiz-adv-x="1257" 
d="M281 1859h275l73 171l73 -171h278l-206 441h-289zM165 0h324v801h280v-801h325v1797h-325v-741h-280v741h-324v-1797z" />
    <glyph glyph-name="Hbar" unicode="&#x126;" horiz-adv-x="1185" 
d="M97 0h364v803h261v-803h366v1335h100v115h-100v350h-366v-350h-261v350h-364v-350h-101v-115h101v-1335zM461 1062v273h261v-273h-261z" />
    <glyph glyph-name="hbar" unicode="&#x127;" horiz-adv-x="983" 
d="M99 0h337v1005c21 25 61 75 104 75c56 0 46 -80 46 -117v-963h337v1051c0 131 -86 284 -231 284c-100 0 -194 -53 -256 -123v248h282v183h-282v157h-337v-157h-99v-183h99v-1460z" />
    <glyph glyph-name="Itilde" unicode="&#x128;" horiz-adv-x="578" 
d="M96 1926c0 28 -3 62 49 62c95 0 205 -73 304 -73c144 0 156 190 156 298h-155c0 -24 0 -46 -35 -46c-62 0 -171 58 -301 58c-161 0 -185 -147 -185 -299h167zM107 0h364v1800h-364v-1800z" />
    <glyph glyph-name="itilde" unicode="&#x129;" horiz-adv-x="532" 
d="M92 1430c0 28 -3 62 49 62c95 0 205 -73 304 -73c144 0 156 190 156 298h-155c0 -24 0 -46 -35 -46c-62 0 -171 58 -301 58c-161 0 -185 -147 -185 -299h167zM124 0h337v1305h-337v-1305z" />
    <glyph glyph-name="Imacron" unicode="&#x12a;" horiz-adv-x="578" 
d="M35 1952h507v193h-507v-193zM107 0h364v1800h-364v-1800z" />
    <glyph glyph-name="imacron" unicode="&#x12b;" horiz-adv-x="532" 
d="M12 1457h507v193h-507v-193zM124 0h337v1305h-337v-1305z" />
    <glyph glyph-name="Iogonek" unicode="&#x12e;" horiz-adv-x="578" 
d="M530 -366c-77 0 -193 -1 -193 117c0 92 42 171 72 257h-148c-78 -75 -151 -201 -151 -311c0 -218 236 -227 399 -223zM107 0h364v1800h-364v-1800z" />
    <glyph glyph-name="iogonek" unicode="&#x12f;" horiz-adv-x="620" 
d="M520 -358c-77 0 -193 -1 -193 117c0 92 42 171 72 257h-148c-78 -75 -151 -201 -151 -311c0 -218 236 -227 399 -223zM99 0h337v1305h-337v-1305zM99 1419h337v315h-337v-315z" />
    <glyph glyph-name="dotlessi" unicode="&#x131;" horiz-adv-x="532" 
d="M124 0h337v1305h-337v-1305z" />
    <glyph glyph-name="IJ" unicode="&#x132;" horiz-adv-x="1262" 
d="M586 -34h179c339 0 405 155 405 466v1368h-364v-1365c0 -179 -46 -215 -220 -213v-256zM107 0h364v1800h-364v-1800z" />
    <glyph glyph-name="ij" unicode="&#x133;" horiz-adv-x="1145" 
d="M552 -284c58 -15 119 -27 179 -27c211 0 320 132 320 337v1279h-335v-1250c0 -52 -14 -111 -76 -111c-29 0 -60 8 -88 16v-244zM716 1419h335v315h-335v-315zM99 0h337v1305h-337v-1305zM99 1419h337v315h-337v-315z" />
    <glyph glyph-name="Jcircumflex" unicode="&#x134;" horiz-adv-x="725" 
d="M101 1888h274l73 202l75 -202h275l-206 406h-290zM49 -34h179c339 0 405 155 405 466v1368h-364v-1365c0 -179 -46 -215 -220 -213v-256z" />
    <glyph glyph-name="jcircumflex" unicode="&#x135;" horiz-adv-x="641" 
d="M31 1380h274l73 202l75 -202h275l-206 406h-290zM48 -284c58 -15 119 -27 179 -27c211 0 320 132 320 337v1279h-335v-1250c0 -52 -14 -111 -76 -111c-29 0 -60 8 -88 16v-244z" />
    <glyph glyph-name="kcommaaccent" unicode="&#x137;" horiz-adv-x="1001" 
d="M99 0h337v506l45 76l172 -582h349l-320 754l321 551h-361l-206 -453v948h-337v-1800z" />
    <glyph glyph-name="kgreenlandic" unicode="&#x138;" horiz-adv-x="1011" 
d="M99 0h337v443l35 59l162 -502h339l-270 744l271 561h-331l-206 -423v423h-337v-1305z" />
    <glyph glyph-name="Ldotaccent" unicode="&#x13f;" horiz-adv-x="855" 
d="M677 780h323v318h-323v-318zM97 0h722v250h-358v1550h-364v-1800z" />
    <glyph glyph-name="ldot" unicode="&#x140;" horiz-adv-x="1000" 
d="M600 679h323v315h-323v-315zM96 0h337v1800h-337v-1800z" />
    <glyph glyph-name="Lslash" unicode="&#x141;" horiz-adv-x="855" 
d="M97 0h722v250h-358v774l257 98v183l-257 -98v593h-364v-730l-82 -31v-183l82 31v-887z" />
    <glyph glyph-name="lslash" unicode="&#x142;" horiz-adv-x="629" 
d="M163 0h337v1052l186 70v183l-186 -70v565h-337v-693l-181 -68v-183l181 68v-924z" />
    <glyph glyph-name="Nacute" unicode="&#x143;" horiz-adv-x="1173" 
d="M467 1889h204l277 442h-345zM107 0h313v999l394 -999h252v1801h-302v-942l-395 942h-262v-1801z" />
    <glyph glyph-name="nacute" unicode="&#x144;" horiz-adv-x="1011" 
d="M421 1393h204l277 442h-345zM96 0h337v1012c19 22 55 68 94 68c56 0 56 -59 56 -87v-993h337v1052c0 131 -86 282 -231 282c-100 0 -194 -51 -256 -121v92h-337v-1305z" />
    <glyph glyph-name="OE" unicode="&#x152;" horiz-adv-x="1555" 
d="M84 609c0 -353 129 -608 526 -608l914 -1v250h-387v554h274v256h-274v490h387v250l-914 -1c-401 -1 -526 -279 -526 -619v-571zM610 253c-139 0 -162 151 -162 265v753c0 113 24 266 162 266h163v-1284h-163z" />
    <glyph glyph-name="oe" unicode="&#x153;" horiz-adv-x="1436" 
d="M83 339c0 -223 179 -369 386 -369c96 0 187 32 262 87c71 -55 156 -87 246 -87c208 0 391 145 391 369v147h-334c0 -22 3 -61 3 -102c0 -71 -10 -148 -70 -148c-59 0 -64 67 -64 110v278h465v270c0 268 -114 440 -381 440c-106 0 -190 -29 -256 -79
c-62 50 -142 79 -242 79c-288 0 -406 -173 -406 -440v-555zM566 339c-1 -45 -12 -103 -77 -103c-67 0 -69 66 -69 110v618c0 42 8 99 69 99c63 0 77 -54 77 -99v-625zM903 801v163c0 42 11 99 64 99c55 0 67 -54 67 -99v-163h-131z" />
    <glyph glyph-name="Racute" unicode="&#x154;" horiz-adv-x="1134" 
d="M386 1889h204l277 442h-345zM107 0h364v829h60l206 -829h377c-101 299 -192 584 -282 870c223 96 245 298 245 456c0 350 -226 474 -574 474h-396v-1800zM471 1051v482h121c109 0 123 -170 123 -236c0 -67 -19 -246 -140 -246h-104z" />
    <glyph glyph-name="Rcommaaccent" unicode="&#x156;" horiz-adv-x="1134" 
d="M468 -639c273 0 258 214 254 561h-323v-318h110c-1 -84 -9 -77 -81 -77zM107 0h364v829h60l206 -829h377c-101 299 -192 584 -282 870c223 96 245 298 245 456c0 350 -226 474 -574 474h-396v-1800zM471 1051v482h121c109 0 123 -170 123 -236c0 -67 -19 -246 -140 -246
h-104z" />
    <glyph glyph-name="rcommaaccent" unicode="&#x157;" horiz-adv-x="714" 
d="M175 -639c273 0 258 214 254 561h-323v-318h110c-1 -84 -9 -77 -81 -77zM94 0h335v876c0 105 48 164 140 164c39 0 74 -6 111 -10l20 284c-31 5 -60 10 -91 10c-77 0 -137 -55 -180 -125v106h-335v-1305z" />
    <glyph glyph-name="Rcaron" unicode="&#x158;" horiz-adv-x="1134" 
d="M351 1867h290l206 406h-275l-75 -201l-73 201h-274zM107 0h364v829h60l206 -829h377c-101 299 -192 584 -282 870c223 96 245 298 245 456c0 350 -226 474 -574 474h-396v-1800zM471 1051v482h121c109 0 123 -170 123 -236c0 -67 -19 -246 -140 -246h-104z" />
    <glyph glyph-name="rcaron" unicode="&#x159;" horiz-adv-x="714" 
d="M277 1372h290l206 406h-275l-75 -201l-73 201h-274zM94 0h335v876c0 105 48 164 140 164c39 0 74 -6 111 -10l20 284c-31 5 -60 10 -91 10c-77 0 -137 -55 -180 -125v106h-335v-1305z" />
    <glyph glyph-name="Sacute" unicode="&#x15a;" horiz-adv-x="1073" 
d="M432 1887h204l277 442h-345zM57 515c14 -282 162 -552 507 -552c251 0 463 172 463 430c0 278 -139 447 -324 612c-42 38 -87 75 -133 114c-86 72 -154 152 -154 281c0 76 34 158 120 158c96 0 115 -122 115 -207c0 -28 -3 -50 -3 -73l376 52c0 29 1 37 1 43
c0 255 -203 464 -459 464c-303 0 -508 -179 -508 -474c0 -259 147 -391 289 -511l113 -96c105 -92 213 -226 213 -376c0 -76 -22 -138 -108 -138c-126 0 -139 186 -139 344z" />
    <glyph glyph-name="sacute" unicode="&#x15b;" horiz-adv-x="874" 
d="M315 1392h204l277 442h-345zM51 315c56 -199 208 -344 418 -344c207 0 381 149 381 364c0 155 -120 285 -235 389l-62 55c-88 74 -182 158 -182 224c0 39 24 82 74 82c91 0 142 -127 170 -199l242 83c-51 185 -201 365 -402 365c-214 0 -422 -116 -422 -351
c0 -162 112 -281 229 -383l55 -47c105 -90 200 -169 200 -261c0 -42 -13 -74 -63 -74c-84 0 -123 122 -145 189z" />
    <glyph glyph-name="Scaron" unicode="&#x160;" horiz-adv-x="1073" 
d="M397 1865h290l206 406h-275l-75 -201l-73 201h-274zM57 515c14 -282 162 -552 507 -552c251 0 463 172 463 430c0 278 -139 447 -324 612c-42 38 -87 75 -133 114c-86 72 -154 152 -154 281c0 76 34 158 120 158c96 0 115 -122 115 -207c0 -28 -3 -50 -3 -73l376 52
c0 29 1 37 1 43c0 255 -203 464 -459 464c-303 0 -508 -179 -508 -474c0 -259 147 -391 289 -511l113 -96c105 -92 213 -226 213 -376c0 -76 -22 -138 -108 -138c-126 0 -139 186 -139 344z" />
    <glyph glyph-name="scaron" unicode="&#x161;" horiz-adv-x="874" 
d="M280 1370h290l206 406h-275l-75 -201l-73 201h-274zM51 315c56 -199 208 -344 418 -344c207 0 381 149 381 364c0 155 -120 285 -235 389l-62 55c-88 74 -182 158 -182 224c0 39 24 82 74 82c91 0 142 -127 170 -199l242 83c-51 185 -201 365 -402 365
c-214 0 -422 -116 -422 -351c0 -162 112 -281 229 -383l55 -47c105 -90 200 -169 200 -261c0 -42 -13 -74 -63 -74c-84 0 -123 122 -145 189z" />
    <glyph glyph-name="Tcommaaccent" unicode="&#x162;" horiz-adv-x="921" 
d="M358 -639c273 0 258 214 254 561h-323v-318h110c-1 -84 -9 -77 -81 -77zM281 0h364v1528h259v272h-887v-272h264v-1528z" />
    <glyph glyph-name="tcommaaccent" unicode="&#x163;" horiz-adv-x="656" 
d="M344 -639c273 0 258 214 254 561h-323v-318h110c-1 -84 -9 -77 -81 -77zM117 448c0 -228 29 -463 313 -463c66 0 127 0 193 20l20 261c-33 -5 -65 -6 -98 -6c-71 0 -91 39 -91 107v713h162v225h-162v429h-337v-429h-96v-225h96v-632zM429 0z" />
    <glyph glyph-name="Umacron" unicode="&#x16a;" horiz-adv-x="1248" 
d="M370 1952h507v193h-507v-193zM99 669c0 -371 68 -704 525 -704c458 0 525 333 525 704v1131h-364v-1120c0 -303 1 -434 -161 -434c-161 0 -161 131 -161 434v1120h-364v-1131z" />
    <glyph glyph-name="umacron" unicode="&#x16b;" horiz-adv-x="1005" 
d="M247 1457h507v193h-507v-193zM87 253c0 -131 85 -282 231 -282c99 0 194 65 257 142v-113h337v1305h-337v-1006c-21 -26 -61 -74 -105 -74c-46 0 -46 73 -46 110v970h-337v-1052z" />
    <glyph glyph-name="Uogonek" unicode="&#x172;" horiz-adv-x="1248" 
d="M1149 -358c-77 0 -193 -1 -193 117c0 92 42 171 72 257h-148c-78 -75 -151 -201 -151 -311c0 -218 236 -227 399 -223zM99 669c0 -371 68 -704 525 -704c458 0 525 333 525 704v1131h-364v-1120c0 -303 1 -434 -161 -434c-161 0 -161 131 -161 434v1120h-364v-1131z" />
    <glyph glyph-name="uogonek" unicode="&#x173;" horiz-adv-x="1005" 
d="M903 -366c-77 0 -193 -1 -193 117c0 92 42 171 72 257h-148c-78 -75 -151 -201 -151 -311c0 -218 236 -227 399 -223zM87 253c0 -131 85 -282 231 -282c99 0 194 65 257 142v-113h337v1305h-337v-1006c-21 -26 -61 -74 -105 -74c-46 0 -46 73 -46 110v970h-337v-1052z
" />
    <glyph glyph-name="Zacute" unicode="&#x179;" horiz-adv-x="998" 
d="M258 1888h204l277 442h-345zM80 0h831v250h-477l477 1320v229h-776v-250h420l-475 -1321v-228z" />
    <glyph glyph-name="zacute" unicode="&#x17a;" horiz-adv-x="813" 
d="M166 1393h204l277 442h-345zM57 0h707v244h-362l362 838v223h-651v-243h303l-359 -834v-228z" />
    <glyph glyph-name="Zdotaccent" unicode="&#x17b;" horiz-adv-x="998" 
d="M337 1994h323v318h-323v-318zM80 0h831v250h-477l477 1320v229h-776v-250h420l-475 -1321v-228z" />
    <glyph glyph-name="zdotaccent" unicode="&#x17c;" horiz-adv-x="813" 
d="M245 1499h323v318h-323v-318zM57 0h707v244h-362l362 838v223h-651v-243h303l-359 -834v-228z" />
    <glyph glyph-name="Zcaron" unicode="&#x17d;" horiz-adv-x="998" 
d="M351 1880h290l206 406h-275l-75 -201l-73 201h-274zM80 0h831v250h-477l477 1320v229h-776v-250h420l-475 -1321v-228z" />
    <glyph glyph-name="zcaron" unicode="&#x17e;" horiz-adv-x="813" 
d="M259 1385h290l206 406h-275l-75 -201l-73 201h-274zM57 0h707v244h-362l362 838v223h-651v-243h303l-359 -834v-228z" />
    <glyph glyph-name="uni01C4" unicode="&#x1c4;" horiz-adv-x="1707" 
 />
    <glyph glyph-name="uni01C5" unicode="&#x1c5;" horiz-adv-x="1977" 
d="M434 1880h290l206 406h-275l-75 -201l-73 201h-274zM1221 0h707v244h-362l362 838v223h-651v-243h303l-359 -834v-228zM471 255v1289h14c154 -1 231 -22 231 -148v-969c0 -161 -51 -172 -237 -172h-8zM107 0h372c518 0 601 207 601 627v590c0 409 -115 583 -597 583h-376
v-1800z" />
    <glyph glyph-name="uni01C6" unicode="&#x1c6;" horiz-adv-x="1707" 
 />
    <glyph glyph-name="uni01C7" unicode="&#x1c7;" horiz-adv-x="1543" 
d="M852 -34h179c339 0 405 155 405 466v1368h-364v-1365c0 -179 -46 -215 -220 -213v-256zM107 0h722v250h-358v1550h-364v-1800z" />
    <glyph glyph-name="uni01C8" unicode="&#x1c8;" horiz-adv-x="1424" 
d="M831 -284c58 -15 119 -27 179 -27c211 0 320 132 320 337v1279h-335v-1250c0 -52 -14 -111 -76 -111c-29 0 -60 8 -88 16v-244zM995 1419h335v315h-335v-315zM107 0h722v250h-358v1550h-364v-1800z" />
    <glyph glyph-name="uni01C9" unicode="&#x1c9;" horiz-adv-x="1101" 
d="M508 -284c58 -15 119 -27 179 -27c211 0 320 132 320 337v1279h-335v-1250c0 -52 -14 -111 -76 -111c-29 0 -60 8 -88 16v-244zM672 1419h335v315h-335v-315zM96 0h337v1800h-337v-1800z" />
    <glyph glyph-name="uni01CA" unicode="&#x1ca;" horiz-adv-x="1864" 
d="M1173 -34h179c339 0 405 155 405 466v1368h-364v-1365c0 -179 -46 -215 -220 -213v-256zM107 0h313v999l394 -999h252v1801h-302v-942l-395 942h-262v-1801z" />
    <glyph glyph-name="uni01CB" unicode="&#x1cb;" horiz-adv-x="1745" 
d="M1152 -284c58 -15 119 -27 179 -27c211 0 320 132 320 337v1279h-335v-1250c0 -52 -14 -111 -76 -111c-29 0 -60 8 -88 16v-244zM1316 1419h335v315h-335v-315zM107 0h313v999l394 -999h252v1801h-302v-942l-395 942h-262v-1801z" />
    <glyph glyph-name="uni01CC" unicode="&#x1cc;" horiz-adv-x="1577" 
d="M984 -284c58 -15 119 -27 179 -27c211 0 320 132 320 337v1279h-335v-1250c0 -52 -14 -111 -76 -111c-29 0 -60 8 -88 16v-244zM1148 1419h335v315h-335v-315zM94 0h337v1012c19 22 55 68 94 68c56 0 56 -59 56 -87v-993h337v1052c0 131 -86 282 -231 282
c-100 0 -194 -51 -256 -121v92h-337v-1305z" />
    <glyph glyph-name="DZ" unicode="&#x1f1;" horiz-adv-x="2067" 
d="M1149 0h831v250h-477l477 1320v229h-776v-250h420l-475 -1321v-228zM471 255v1289h14c154 -1 231 -22 231 -148v-969c0 -161 -51 -172 -237 -172h-8zM107 0h372c518 0 601 207 601 627v590c0 409 -115 583 -597 583h-376v-1800z" />
    <glyph glyph-name="Dz" unicode="&#x1f2;" horiz-adv-x="1935" 
d="M1149 0h707v244h-362l362 838v223h-651v-243h303l-359 -834v-228zM471 255v1289h14c154 -1 231 -22 231 -148v-969c0 -161 -51 -172 -237 -172h-8zM107 0h372c518 0 601 207 601 627v590c0 409 -115 583 -597 583h-376v-1800z" />
    <glyph glyph-name="uni0200" unicode="&#x200;" 
d="M350 1901h207l-137 442h-285zM668 1901h205l-137 442h-283zM18 0h361l70 385h235l74 -385h359l-388 1800h-322zM474 609l95 668l91 -668h-186z" />
    <glyph glyph-name="uni0201" unicode="&#x201;" horiz-adv-x="976" 
d="M291 1406h207l-137 442h-285zM609 1406h205l-137 442h-283zM620 0h308c-27 117 -43 227 -43 347v620c0 202 -178 368 -376 368c-289 0 -441 -168 -441 -466h327v74c0 64 3 137 81 137c57 0 75 -50 75 -137v-110c-270 -111 -493 -220 -493 -542c0 -152 70 -320 270 -320
c119 0 217 34 259 164zM552 295c-23 -29 -53 -70 -98 -70c-54 0 -68 53 -68 97c0 130 78 224 165 294z" />
    <glyph glyph-name="uni0202" unicode="&#x202;" 
d="M488 1932c0 49 19 127 81 127s81 -78 81 -127h172c0 148 -106 248 -253 248s-253 -100 -253 -248h172zM18 0h361l70 385h235l74 -385h359l-388 1800h-322zM474 609l95 668l91 -668h-186z" />
    <glyph glyph-name="uni0203" unicode="&#x203;" horiz-adv-x="976" 
d="M429 1437c0 49 19 127 81 127s81 -78 81 -127h172c0 148 -106 248 -253 248s-253 -100 -253 -248h172zM620 0h308c-27 117 -43 227 -43 347v620c0 202 -178 368 -376 368c-289 0 -441 -168 -441 -466h327v74c0 64 3 137 81 137c57 0 75 -50 75 -137v-110
c-270 -111 -493 -220 -493 -542c0 -152 70 -320 270 -320c119 0 217 34 259 164zM552 295c-23 -29 -53 -70 -98 -70c-54 0 -68 53 -68 97c0 130 78 224 165 294z" />
    <glyph glyph-name="uni0204" unicode="&#x204;" horiz-adv-x="889" 
d="M252 1918h207l-137 442h-285zM570 1918h205l-137 442h-283zM107 0h751v250h-387v554h274v256h-274v490h387v250h-751v-1800z" />
    <glyph glyph-name="uni0205" unicode="&#x205;" horiz-adv-x="940" 
d="M265 1406h207l-137 442h-285zM583 1406h205l-137 442h-283zM78 339c0 -223 189 -368 401 -368c213 0 401 144 401 368v147h-331v-143c0 -56 -10 -118 -70 -118c-59 0 -64 67 -64 110v289h465v270c0 268 -120 441 -401 441c-280 0 -401 -174 -401 -441v-555zM415 801v180
c0 42 11 99 64 99c55 0 67 -54 67 -99v-180h-131z" />
    <glyph glyph-name="uni0206" unicode="&#x206;" horiz-adv-x="889" 
d="M390 1949c0 49 19 127 81 127s81 -78 81 -127h172c0 148 -106 248 -253 248s-253 -100 -253 -248h172zM107 0h751v250h-387v554h274v256h-274v490h387v250h-751v-1800z" />
    <glyph glyph-name="uni0207" unicode="&#x207;" horiz-adv-x="940" 
d="M403 1437c0 49 19 127 81 127s81 -78 81 -127h172c0 148 -106 248 -253 248s-253 -100 -253 -248h172zM78 339c0 -223 189 -368 401 -368c213 0 401 144 401 368v147h-331v-143c0 -56 -10 -118 -70 -118c-59 0 -64 67 -64 110v289h465v270c0 268 -120 441 -401 441
c-280 0 -401 -174 -401 -441v-555zM415 801v180c0 42 11 99 64 99c55 0 67 -54 67 -99v-180h-131z" />
    <glyph glyph-name="uni0208" unicode="&#x208;" horiz-adv-x="578" 
d="M74 1901h207l-137 442h-285zM392 1901h205l-137 442h-283zM107 0h364v1800h-364v-1800z" />
    <glyph glyph-name="uni0209" unicode="&#x209;" horiz-adv-x="532" 
d="M75 1418h207l-137 442h-285zM393 1418h205l-137 442h-283zM124 0h337v1305h-337v-1305z" />
    <glyph glyph-name="uni020A" unicode="&#x20a;" horiz-adv-x="578" 
d="M212 1932c0 49 19 127 81 127s81 -78 81 -127h172c0 148 -106 248 -253 248s-253 -100 -253 -248h172zM107 0h364v1800h-364v-1800z" />
    <glyph glyph-name="uni020B" unicode="&#x20b;" horiz-adv-x="534" 
d="M99 0h337v1305h-337v-1305zM99 1419h337v315h-337v-315z" />
    <glyph glyph-name="uni020C" unicode="&#x20c;" horiz-adv-x="1221" 
d="M393 1901h207l-137 442h-285zM711 1901h205l-137 442h-283zM773 510c0 -116 -22 -265 -163 -265c-139 0 -162 151 -162 265v778c0 113 24 266 162 266c139 0 163 -151 163 -266v-778zM84 592c0 -347 129 -627 526 -627c399 0 527 289 527 636v596
c0 357 -126 638 -527 638s-526 -281 -526 -638v-605z" />
    <glyph glyph-name="uni020D" unicode="&#x20d;" horiz-adv-x="973" 
d="M280 1419h207l-137 442h-285zM598 1419h205l-137 442h-283zM78 339c0 -223 189 -368 406 -368c218 0 411 144 411 368v555c0 268 -123 440 -411 440s-406 -173 -406 -440v-555zM561 335c0 -46 -8 -110 -77 -110c-67 0 -69 66 -69 110v646c0 42 8 99 69 99
c63 0 77 -54 77 -99v-646z" />
    <glyph glyph-name="uni020E" unicode="&#x20e;" horiz-adv-x="1221" 
d="M531 1932c0 49 19 127 81 127s81 -78 81 -127h172c0 148 -106 248 -253 248s-253 -100 -253 -248h172zM773 510c0 -116 -22 -265 -163 -265c-139 0 -162 151 -162 265v778c0 113 24 266 162 266c139 0 163 -151 163 -266v-778zM84 592c0 -347 129 -627 526 -627
c399 0 527 289 527 636v596c0 357 -126 638 -527 638s-526 -281 -526 -638v-605z" />
    <glyph glyph-name="uni020F" unicode="&#x20f;" horiz-adv-x="973" 
d="M418 1450c0 49 19 127 81 127s81 -78 81 -127h172c0 148 -106 248 -253 248s-253 -100 -253 -248h172zM78 339c0 -223 189 -368 406 -368c218 0 411 144 411 368v555c0 268 -123 440 -411 440s-406 -173 -406 -440v-555zM561 335c0 -46 -8 -110 -77 -110
c-67 0 -69 66 -69 110v646c0 42 8 99 69 99c63 0 77 -54 77 -99v-646z" />
    <glyph glyph-name="uni0210" unicode="&#x210;" horiz-adv-x="1134" 
d="M285 1901h207l-137 442h-285zM603 1901h205l-137 442h-283zM107 0h364v829h60l206 -829h377c-101 299 -192 584 -282 870c223 96 245 298 245 456c0 350 -226 474 -574 474h-396v-1800zM471 1051v482h121c109 0 123 -170 123 -236c0 -67 -19 -246 -140 -246h-104z" />
    <glyph glyph-name="uni0211" unicode="&#x211;" horiz-adv-x="714" 
d="M211 1406h207l-137 442h-285zM529 1406h205l-137 442h-283zM94 0h335v876c0 105 48 164 140 164c39 0 74 -6 111 -10l20 284c-31 5 -60 10 -91 10c-77 0 -137 -55 -180 -125v106h-335v-1305z" />
    <glyph glyph-name="uni0212" unicode="&#x212;" horiz-adv-x="1134" 
d="M423 1932c0 49 19 127 81 127s81 -78 81 -127h172c0 148 -106 248 -253 248s-253 -100 -253 -248h172zM107 0h364v829h60l206 -829h377c-101 299 -192 584 -282 870c223 96 245 298 245 456c0 350 -226 474 -574 474h-396v-1800zM471 1051v482h121
c109 0 123 -170 123 -236c0 -67 -19 -246 -140 -246h-104z" />
    <glyph glyph-name="uni0213" unicode="&#x213;" horiz-adv-x="714" 
d="M349 1437c0 49 19 127 81 127s81 -78 81 -127h172c0 148 -106 248 -253 248s-253 -100 -253 -248h172zM94 0h335v876c0 105 48 164 140 164c39 0 74 -6 111 -10l20 284c-31 5 -60 10 -91 10c-77 0 -137 -55 -180 -125v106h-335v-1305z" />
    <glyph glyph-name="uni0214" unicode="&#x214;" horiz-adv-x="1248" 
d="M409 1901h207l-137 442h-285zM727 1901h205l-137 442h-283zM99 669c0 -371 68 -704 525 -704c458 0 525 333 525 704v1131h-364v-1120c0 -303 1 -434 -161 -434c-161 0 -161 131 -161 434v1120h-364v-1131z" />
    <glyph glyph-name="uni0215" unicode="&#x215;" horiz-adv-x="1005" 
d="M276 1405h207l-137 442h-285zM594 1405h205l-137 442h-283zM87 253c0 -131 85 -282 231 -282c99 0 194 65 257 142v-113h337v1305h-337v-1006c-21 -26 -61 -74 -105 -74c-46 0 -46 73 -46 110v970h-337v-1052z" />
    <glyph glyph-name="uni0216" unicode="&#x216;" horiz-adv-x="1248" 
d="M547 1932c0 49 19 127 81 127s81 -78 81 -127h172c0 148 -106 248 -253 248s-253 -100 -253 -248h172zM99 669c0 -371 68 -704 525 -704c458 0 525 333 525 704v1131h-364v-1120c0 -303 1 -434 -161 -434c-161 0 -161 131 -161 434v1120h-364v-1131z" />
    <glyph glyph-name="uni0217" unicode="&#x217;" horiz-adv-x="1005" 
d="M414 1436c0 49 19 127 81 127s81 -78 81 -127h172c0 148 -106 248 -253 248s-253 -100 -253 -248h172zM87 253c0 -131 85 -282 231 -282c99 0 194 65 257 142v-113h337v1305h-337v-1006c-21 -26 -61 -74 -105 -74c-46 0 -46 73 -46 110v970h-337v-1052z" />
    <glyph glyph-name="uni0218" unicode="&#x218;" horiz-adv-x="1073" 
d="M471 -639c14 -2 30 -4 44 -4c247 0 210 238 210 565h-323v-318h110c-1 -84 -9 -77 -81 -77zM57 515c14 -282 162 -552 507 -552c251 0 463 172 463 430c0 278 -139 447 -324 612c-42 38 -87 75 -133 114c-86 72 -154 152 -154 281c0 76 34 158 120 158
c96 0 115 -122 115 -207c0 -28 -3 -50 -3 -73l376 52c0 29 1 37 1 43c0 255 -203 464 -459 464c-303 0 -508 -179 -508 -474c0 -259 147 -391 289 -511l113 -96c105 -92 213 -226 213 -376c0 -76 -22 -138 -108 -138c-126 0 -139 186 -139 344z" />
    <glyph glyph-name="uni0219" unicode="&#x219;" horiz-adv-x="874" 
d="M349 -639c14 -2 30 -4 44 -4c247 0 210 238 210 565h-323v-318h110c-1 -84 -9 -77 -81 -77zM51 315c56 -199 208 -344 418 -344c207 0 381 149 381 364c0 155 -120 285 -235 389l-62 55c-88 74 -182 158 -182 224c0 39 24 82 74 82c91 0 142 -127 170 -199l242 83
c-51 185 -201 365 -402 365c-214 0 -422 -116 -422 -351c0 -162 112 -281 229 -383l55 -47c105 -90 200 -169 200 -261c0 -42 -13 -74 -63 -74c-84 0 -123 122 -145 189z" />
    <glyph glyph-name="uni021A" unicode="&#x21a;" horiz-adv-x="921" 
d="M349 -639c14 -2 30 -4 44 -4c247 0 210 238 210 565h-323v-318h110c-1 -84 -9 -77 -81 -77zM281 0h364v1528h259v272h-887v-272h264v-1528z" />
    <glyph glyph-name="uni021B" unicode="&#x21b;" horiz-adv-x="656" 
d="M344 -639c14 -2 30 -4 44 -4c247 0 210 238 210 565h-323v-318h110c-1 -84 -9 -77 -81 -77zM117 448c0 -228 29 -463 313 -463c66 0 127 0 193 20l20 261c-33 -5 -65 -6 -98 -6c-71 0 -91 39 -91 107v713h162v225h-162v429h-337v-429h-96v-225h96v-632zM429 0z" />
    <glyph glyph-name="dotlessj" unicode="&#x237;" horiz-adv-x="641" 
d="M48 -284c58 -15 119 -27 179 -27c211 0 320 132 320 337v1279h-335v-1250c0 -52 -14 -111 -76 -111c-29 0 -60 8 -88 16v-244z" />
    <glyph glyph-name="circumflex" unicode="&#x2c6;" horiz-adv-x="894" 
d="M107 1393h274l73 202l75 -202h275l-206 406h-290z" />
    <glyph glyph-name="caron" unicode="&#x2c7;" horiz-adv-x="859" 
d="M281 1385h290l206 406h-275l-75 -201l-73 201h-274z" />
    <glyph glyph-name="breve" unicode="&#x2d8;" horiz-adv-x="728" 
d="M95 1686c0 -148 106 -248 253 -248s253 100 253 248h-172c0 -49 -19 -127 -81 -127s-81 78 -81 127h-172z" />
    <glyph glyph-name="dotaccent" unicode="&#x2d9;" horiz-adv-x="579" 
d="M146 1499h323v318h-323v-318z" />
    <glyph glyph-name="ring" unicode="&#x2da;" horiz-adv-x="757" 
d="M372 1559c-60 0 -81 70 -81 119c0 48 22 117 81 117c58 0 78 -73 78 -119c0 -47 -20 -117 -78 -117zM119 1677c0 -149 109 -239 253 -239s253 90 253 239c0 148 -110 239 -253 239c-144 0 -253 -90 -253 -239z" />
    <glyph glyph-name="ogonek" unicode="&#x2db;" horiz-adv-x="575" 
d="M468 -358c-77 0 -193 -1 -193 117c0 92 42 171 72 257h-148c-78 -75 -151 -201 -151 -311c0 -218 236 -227 399 -223z" />
    <glyph glyph-name="tilde" unicode="&#x2dc;" horiz-adv-x="900" 
d="M288 1430c0 28 -3 62 49 62c95 0 205 -73 304 -73c144 0 156 190 156 298h-155c0 -24 0 -46 -35 -46c-62 0 -171 58 -301 58c-161 0 -185 -147 -185 -299h167z" />
    <glyph glyph-name="hungarumlaut" unicode="&#x2dd;" horiz-adv-x="984" 
d="M113 1405h205l215 442h-283zM429 1405h207l215 442h-285z" />
    <glyph glyph-name="uni030F" unicode="&#x30f;" horiz-adv-x="984" 
d="M328 1405h207l-137 442h-285zM646 1405h205l-137 442h-283z" />
    <glyph glyph-name="uni0311" unicode="&#x311;" horiz-adv-x="728" 
d="M267 1438c0 49 19 127 81 127s81 -78 81 -127h172c0 148 -106 248 -253 248s-253 -100 -253 -248h172z" />
    <glyph glyph-name="uni0326" unicode="&#x326;" horiz-adv-x="506" 
d="M153 -639c14 -2 30 -4 44 -4c247 0 210 238 210 565h-323v-318h110c-1 -84 -9 -77 -81 -77z" />
    <glyph glyph-name="endash" unicode="&#x2013;" horiz-adv-x="528" 
d="M4 453h517v223h-517v-223z" />
    <glyph glyph-name="emdash" unicode="&#x2014;" horiz-adv-x="827" 
d="M4 453h817v223h-817v-223z" />
    <glyph glyph-name="quoteleft" unicode="&#x2018;" horiz-adv-x="562" 
d="M425 1281v297h-128c2 71 82 88 139 87l-83 169c-284 1 -225 -356 -225 -553h297z" />
    <glyph glyph-name="quoteright" unicode="&#x2019;" horiz-adv-x="562" 
d="M199 1281c284 -1 225 356 225 553h-296v-297h128c-4 -73 -82 -88 -141 -87z" />
    <glyph glyph-name="quotesinglbase" unicode="&#x201a;" horiz-adv-x="429" 
d="M127 -321h163l71 424h-304z" />
    <glyph glyph-name="quotedblleft" unicode="&#x201c;" horiz-adv-x="962" 
d="M428 1281v297h-128c4 72 81 88 140 87l-83 169c-285 1 -226 -355 -226 -553h297zM813 1281v297h-128c4 71 80 88 139 87l-82 169c-285 1 -226 -355 -226 -553h297z" />
    <glyph glyph-name="quotedblright" unicode="&#x201d;" horiz-adv-x="962" 
d="M203 1281c284 -1 225 356 225 553h-297v-297h128c-2 -73 -83 -88 -140 -87zM587 1281c285 -1 226 355 226 553h-297v-297h128c-4 -73 -82 -88 -141 -87z" />
    <glyph glyph-name="quotedblbase" unicode="&#x201e;" horiz-adv-x="762" 
d="M130 -320h163l71 424h-304zM454 -320h162l72 424h-305z" />
    <glyph glyph-name="daggerdbl" unicode="&#x2021;" horiz-adv-x="798" 
d="M271 0h256v448h192v256h-192v320h192v256h-192v256h-256v-256h-192v-256h192v-320h-192v-256h192v-448z" />
    <glyph glyph-name="bullet" unicode="&#x2022;" horiz-adv-x="990" 
d="M494 335c187 0 375 129 375 383c0 257 -187 387 -375 387c-186 0 -373 -129 -373 -387c0 -255 186 -383 373 -383z" />
    <glyph glyph-name="guilsinglleft" unicode="&#x2039;" horiz-adv-x="618" 
d="M527 64v320l-256 257l256 255v320l-448 -512v-128z" />
    <glyph glyph-name="guilsinglright" unicode="&#x203a;" horiz-adv-x="600" 
d="M79 64l448 512v128l-448 512v-320l256 -255l-256 -257v-320z" />
    <glyph glyph-name="fraction" unicode="&#x2044;" horiz-adv-x="618" 
d="M29 0h196l260 1801h-199z" />
    <glyph glyph-name="foursuperior" unicode="&#x2074;" horiz-adv-x="829" 
d="M71 842h324v-259h222v259h130v158h-130v583h-195l-351 -593v-148zM302 1000l93 184v-184h-93z" />
    <glyph glyph-name="Euro" unicode="&#x20ac;" horiz-adv-x="1040" 
d="M7 514h70v-8c12 -296 102 -533 444 -533c360 0 433 299 434 595v8h-278v-6c0 -104 -6 -334 -151 -334c-148 0 -156 158 -162 273v5h196v196h-199v127h199v197h-199v6c1 123 -4 285 158 285c133 0 148 -191 149 -287v-7h282v6c-4 294 -95 546 -436 546
c-339 0 -421 -252 -435 -542v-7h-72v-197h69v-127h-69v-196z" />
    <glyph glyph-name="trademark" unicode="&#x2122;" horiz-adv-x="2234" 
d="M330 686h170v678h164v154h-497v-154h163v-678zM756 686h158v555l137 -555h103l137 555v-555h160v832h-242l-107 -453l-104 453h-242v-832z" />
    <glyph glyph-name="Delta" unicode="&#x2206;" horiz-adv-x="1054" 
d="M376 192l151 704l152 -704h-303zM79 0h898l-320 1280h-258z" />
    <glyph glyph-name="product" unicode="&#x220f;" horiz-adv-x="1246" 
d="M143 0h256v1600h448v-1600h256v1792h-960v-1792z" />
    <glyph glyph-name="integral" unicode="&#x222b;" horiz-adv-x="734" 
d="M15 -244c72 -9 110 -12 158 -12c290 0 290 192 290 384v1248c0 85 9 160 106 160c20 0 54 -7 86 -10v190c-72 9 -110 12 -158 12c-290 0 -290 -192 -290 -384v-1248c0 -85 -9 -160 -106 -160c-19 0 -55 5 -86 10v-190z" />
    <glyph glyph-name="commaaccent" unicode="&#xf6c3;" horiz-adv-x="506" 
d="M153 -639c273 0 258 214 254 561h-323v-318h110c-1 -84 -9 -77 -81 -77z" />
    <glyph glyph-name="ff" unicode="&#xfb00;" horiz-adv-x="1279" 
d="M141 0h337v1080h282v-1080h337v1080h163v225h-163v61c0 86 25 109 78 109c19 0 88 -6 88 -6v252s-117 14 -212 14c-245 0 -284 -198 -290 -401c0 -10 -1 -19 -1 -29h-282v61c0 86 25 109 78 109c19 0 88 -6 88 -6v252s-117 14 -212 14c-245 0 -284 -198 -290 -401
c0 -10 -1 -19 -1 -29h-76v-225h76v-1080z" />
    <glyph glyph-name="fi" unicode="&#xfb01;" horiz-adv-x="1197" 
d="M141 0h337v1080h287v-1080h337v1305h-624v61c0 86 25 109 78 109c19 0 88 -6 88 -6v252s-117 14 -212 14c-245 0 -284 -198 -290 -401c0 -10 -1 -19 -1 -29h-76v-225h76v-1080zM765 1419h337v315h-337v-315z" />
    <glyph glyph-name="fl" unicode="&#xfb02;" horiz-adv-x="1189" 
d="M756 0h337v1709c-279 12 -474 26 -621 26c-277 0 -324 -198 -330 -401c0 -10 -1 -19 -1 -29h-76v-225h76v-1080h337v1080h163v225h-163v61c0 86 25 109 78 109c35 0 142 -3 200 -5v-1470z" />
    <glyph glyph-name="ffi" unicode="&#xfb03;" horiz-adv-x="1839" 
d="M141 0h337v1080h282v-1080h337v1080h310v-1080h337v1305h-647v61c0 86 25 109 78 109c19 0 88 -6 88 -6v252s-117 14 -212 14c-245 0 -284 -198 -290 -401c0 -10 -1 -19 -1 -29h-282v61c0 86 25 109 78 109c19 0 88 -6 88 -6v252s-117 14 -212 14
c-245 0 -284 -198 -290 -401c0 -10 -1 -19 -1 -29h-76v-225h76v-1080zM1407 1419h337v315h-337v-315z" />
    <glyph glyph-name="ffl" unicode="&#xfb04;" horiz-adv-x="1849" 
d="M1416 0h337v1698c-279 23 -462 37 -601 37c-293 0 -344 -198 -350 -401c0 -10 -1 -19 -1 -29h-323v61c0 86 25 109 78 109c19 0 88 -6 88 -6v252s-117 14 -212 14c-245 0 -284 -198 -290 -401c0 -10 -1 -19 -1 -29h-76v-225h76v-1080h337v1080h323v-1080h337v1080h163
v225h-163v61c0 86 43 109 138 109c24 0 91 -3 140 -4v-1471z" />
    <glyph glyph-name=".null" horiz-adv-x="595" 
 />
    <glyph glyph-name="NULL" horiz-adv-x="336" 
 />
    <glyph glyph-name="Scommaaccent" horiz-adv-x="1073" 
d="M425 -639c14 -2 30 -4 44 -4c247 0 210 238 210 565h-323v-318h110c-1 -84 -9 -77 -81 -77zM57 515c14 -282 162 -552 507 -552c251 0 463 172 463 430c0 278 -139 447 -324 612c-42 38 -87 75 -133 114c-86 72 -154 152 -154 281c0 76 34 158 120 158
c96 0 115 -122 115 -207c0 -28 -3 -50 -3 -73l376 52c0 29 1 37 1 43c0 255 -203 464 -459 464c-303 0 -508 -179 -508 -474c0 -259 147 -391 289 -511l113 -96c105 -92 213 -226 213 -376c0 -76 -22 -138 -108 -138c-126 0 -139 186 -139 344z" />
    <glyph glyph-name="foundryicon" horiz-adv-x="1620" 
d="M346 277l459 327l469 -327l-170 542l461 349h-572l-188 542l-178 -542l-572 -11l459 -338z" />
    <glyph glyph-name="nbspace" horiz-adv-x="336" 
 />
    <glyph glyph-name="nonmarkingreturn" horiz-adv-x="-33" 
 />
    <glyph glyph-name="scommaaccent" horiz-adv-x="874" 
d="M377 -642c14 -2 30 -4 44 -4c247 0 210 238 210 565h-323v-318h110c-1 -84 -9 -77 -81 -77zM51 315c56 -199 208 -344 418 -344c207 0 381 149 381 364c0 155 -120 285 -235 389l-62 55c-88 74 -182 158 -182 224c0 39 24 82 74 82c91 0 142 -127 170 -199l242 83
c-51 185 -201 365 -402 365c-214 0 -422 -116 -422 -351c0 -162 112 -281 229 -383l55 -47c105 -90 200 -169 200 -261c0 -42 -13 -74 -63 -74c-84 0 -123 122 -145 189z" />
    <glyph glyph-name="tt" horiz-adv-x="1263" 
d="M117 448c0 -228 29 -463 313 -463c66 0 127 0 193 20l20 261c-33 -5 -65 -6 -98 -6c-71 0 -92 39 -92 107v713h266v-632c0 -228 29 -463 313 -463c66 0 127 0 193 20l20 261c-33 -5 -65 -6 -98 -6c-71 0 -92 39 -92 107v713h163v225h-163v429h-336v-429h-266v429h-336
v-429h-96v-225h96v-632z" />
    </font>
</defs>
</svg>
